<?xml version="1.0" encoding="UTF-8" ?>
<svg version="1.1" xmlns="http://www.w3.org/2000/svg" viewBox="0 0 26 26">
  <path
    d="M21.093 8.59538L25.779 0.42L17.527 5.04795C16.576 5.5882 15.998 6.60235 15.998 7.68286V10.1156H18.444C19.53 10.1156 20.549 9.54109 21.092 8.59538H21.093Z"
  />
  <path
    d="M19.88 13.5118C19.269 13.8498 18.895 14.4917 18.895 15.201V16.7554H20.456C21.17 16.7554 21.815 16.3841 22.154 15.7755L25.142 10.5056L19.879 13.5128L19.88 13.5118Z"
  />
  <path
    d="M14.877 4.60931L17.255 0.42L13.044 2.7853C12.569 3.05595 12.263 3.56199 12.263 4.13646V5.386H13.52C14.063 5.386 14.607 5.08217 14.878 4.60931H14.8775Z"
  />
  <path
    d="M0.5292 0C0.5292 0 6.235 3.44581 10.208 12.6685C14.402 22.4025 26 25.3371 26 25.3371C22.246 22.4595 18.488 19.0946 15.602 11.2552L13.771 13.0771L13.082 12.2092L15.147 10.1435C11.693 2.86512 0.5292 0 0.5292 0Z"
  />
  <path d="M12.928 22.1244L13.632 22.9737L15.724 20.8655L14.857 20.205L12.927 22.1244H12.928Z" />
  <path
    d="M7.694 9.15563C7.898 9.45945 8.068 9.7975 8.238 10.1356L5.4597 12.899L4.7577 12.0767L7.694 9.15563Z"
  />
  <path
    d="M9.766 15.5404L10.547 14.7638C10.751 15.1018 10.955 15.4056 11.159 15.7095L10.242 16.622L6.207 20.6174L5.53224 19.7598L9.767 15.5415L9.766 15.5404Z"
  />
</svg>
