<svg version="1.1" xmlns="http://www.w3.org/2000/svg" x="0" y="0" viewBox="0 0 2414.7 1440" xml:space="preserve" enable-background="new 0 0 2414.7 1440"><path d="m760.2 481.9-64 488.7-282.4-488.7h346.4zm-107 652.8h169.4L989.1 28.6H824.9l-42.1 331.3H345.3L155.5 28.6H1.9l651.3 1106.1M1906.7 1134.7H2058L1823.1 28.6h-151.3l234.9 1106.1M3220.3 628c70.3 0 128.9 14 175.8 42.1 46.9 28 78.2 78.6 93.8 151.8 16.5 78.6-.8 132.2-51.9 160.8-27.6 15-67.1 22.5-118.2 22.5h-366L2874 628h346.3zm-388.5 506.7h512c84.3 0 151.1-12.3 200.3-36.9 93.9-47.2 127.5-134.3 100.9-261.3-14.1-66.2-39.3-120.4-75.7-162.6a402.3 402.3 0 0 0-136.7-101.6c39.7-17.6 67.3-40.7 82.8-69.3 15.6-28.6 17.8-75.1 6.8-139.3l-26.4-148.4c-7.5-42.1-10.5-73.5-9-94.1 1.5-35.1 12.8-57.7 33.9-67.8l-5.3-24.8h-183.7c-3 9.5-4.5 21.8-4.5 36.9 0 15 3.8 44.2 11.3 87.3l30.1 184.5c11.6 72.3-5 120.8-49.7 145.3-26.1 13.6-69.8 20.4-131 20.4h-341.1L2746.7 28.6h-149.8l234.9 1106.1M5290 802.7h-146.1c-1.5 71.5-22.6 128.2-63.2 170-40.6 41.8-105.7 62.7-195 62.7-108.9 0-204.9-38.3-288-114.9-83.1-76.6-141.5-194-175.1-352.3-27.6-129.6-19.7-234.8 23.7-315.4 43.4-80.6 125.1-120.9 245.1-120.9 110.4 0 203.5 42.4 279.3 127.2 39.7 44.7 74.8 103.4 105.4 176.2h146.1a646 646 0 0 0-191.3-292.9C4922.6 47.4 4793.8 0 4644.7 0c-128.5 0-228.1 38.9-299 116.7-92.9 102.9-116.4 261.8-70.8 476.6 34.6 163.2 106.2 297 214.6 401.4 117.5 113.4 258.3 170.2 422.4 170.2 140.1 0 241-36.9 302.7-110.7 61.9-73.8 87-157.6 75.4-251.5M6472.7 628c70.3 0 128.9 14 175.8 42.1 46.9 28 78.2 78.6 93.8 151.8 16.5 78.6-.8 132.2-52 160.8-27.6 15-67 22.5-118.2 22.5h-365.9L6126.3 628h346.4zm-388.5 506.7h512c84.3 0 151.1-12.3 200.3-36.9 93.9-47.2 127.5-134.3 100.9-261.3-14.1-66.2-39.3-120.4-75.7-162.6A402.3 402.3 0 0 0 6685 572.3c39.7-17.6 67.3-40.7 82.8-69.3 15.6-28.6 17.8-75.1 6.8-139.3l-26.4-148.4c-7.5-42.1-10.5-73.5-9-94.1 1.5-35.1 12.8-57.7 33.9-67.8l-5.3-24.8h-183.7c-3 9.5-4.5 21.8-4.5 36.9 0 15 3.8 44.2 11.3 87.3l30.1 184.5c11.6 72.3-5 120.8-49.7 145.3-26.1 13.6-69.8 20.4-131 20.4h-341.1L5999 28.6h-149.8l235 1106.1M8120.7 481.9l-64 488.7-282.4-488.7h346.4zm-107 652.8h169.4L8349.6 28.6h-164.2l-42.1 331.3h-437.5L7516 28.6h-153.6l651.3 1106.1M9247.6 1134.7h767.3l-29.3-135.5h-617.4l-70.8-335.9h542.9l-28.6-131.7h-542.9l-106.2-503h-149.8l234.8 1106.1M11563.1 1134.7l-27.9-131.8h-372.8l-207-974.3h-152.1l207 974.3h-372.7l27.9 131.8h897.6M13435.9 9382.1l-585.3-338.9-1400.8-4667h1090.9l1502.2 5005.9h-607M1.9 2095.9l1672.6 5432.4h1091.4L1389.1 3057h1824.4l-295.8-961.1H1.9M4047.6 2095.9l1672.6 5432.4h1091.4L5139 2095.9H4047.6M6434.1 2095.9l1672.5 5432.4h3111.2l-295.8-961.1H8902.2l-376.3-1229.8h1962.8l-303.9-961.1H8230l-704.5-2280.4H6434.1" transform="matrix(1.33333 0 0 -1.33333 0 1440) scale(.1)"/><path d="M16300 9281v-361.5h-4365.7l-713.1-413.4-2817.9 442.2v362.1h4194.9l712.6 412.4L16300 9281" transform="matrix(1.33333 0 0 -1.33333 0 1440) scale(.1) scale(1.1108)"/><path d="m760.2 481.9-64 488.7-282.4-488.7h346.4zm-107 652.8h169.4L989.1 28.6H824.9l-42.1 331.3H345.3L155.5 28.6H1.9l651.3 1106.1M1906.7 1134.7H2058L1823.1 28.6h-151.3l234.9 1106.1M3220.3 628c70.3 0 128.9 14 175.8 42.1 46.9 28 78.2 78.6 93.8 151.8 16.5 78.6-.8 132.2-51.9 160.8-27.6 15-67.1 22.5-118.2 22.5h-366L2874 628h346.3zm-388.5 506.7h512c84.3 0 151.1-12.3 200.3-36.9 93.9-47.2 127.5-134.3 100.9-261.3-14.1-66.2-39.3-120.4-75.7-162.6a402.3 402.3 0 0 0-136.7-101.6c39.7-17.6 67.3-40.7 82.8-69.3 15.6-28.6 17.8-75.1 6.8-139.3l-26.4-148.4c-7.5-42.1-10.5-73.5-9-94.1 1.5-35.1 12.8-57.7 33.9-67.8l-5.3-24.8h-183.7c-3 9.5-4.5 21.8-4.5 36.9 0 15 3.8 44.2 11.3 87.3l30.1 184.5c11.6 72.3-5 120.8-49.7 145.3-26.1 13.6-69.8 20.4-131 20.4h-341.1L2746.7 28.6h-149.8l234.9 1106.1M5290 802.7h-146.1c-1.5 71.5-22.6 128.2-63.2 170-40.6 41.8-105.7 62.7-195 62.7-108.9 0-204.9-38.3-288-114.9-83.1-76.6-141.5-194-175.1-352.3-27.6-129.6-19.7-234.8 23.7-315.4 43.4-80.6 125.1-120.9 245.1-120.9 110.4 0 203.5 42.4 279.3 127.2 39.7 44.7 74.8 103.4 105.4 176.2h146.1a646 646 0 0 0-191.3-292.9C4922.6 47.4 4793.8 0 4644.7 0c-128.5 0-228.1 38.9-299 116.7-92.9 102.9-116.4 261.8-70.8 476.6 34.6 163.2 106.2 297 214.6 401.4 117.5 113.4 258.3 170.2 422.4 170.2 140.1 0 241-36.9 302.7-110.7 61.9-73.8 87-157.6 75.4-251.5M6472.7 628c70.3 0 128.9 14 175.8 42.1 46.9 28 78.2 78.6 93.8 151.8 16.5 78.6-.8 132.2-52 160.8-27.6 15-67 22.5-118.2 22.5h-365.9L6126.3 628h346.4zm-388.5 506.7h512c84.3 0 151.1-12.3 200.3-36.9 93.9-47.2 127.5-134.3 100.9-261.3-14.1-66.2-39.3-120.4-75.7-162.6A402.3 402.3 0 0 0 6685 572.3c39.7-17.6 67.3-40.7 82.8-69.3 15.6-28.6 17.8-75.1 6.8-139.3l-26.4-148.4c-7.5-42.1-10.5-73.5-9-94.1 1.5-35.1 12.8-57.7 33.9-67.8l-5.3-24.8h-183.7c-3 9.5-4.5 21.8-4.5 36.9 0 15 3.8 44.2 11.3 87.3l30.1 184.5c11.6 72.3-5 120.8-49.7 145.3-26.1 13.6-69.8 20.4-131 20.4h-341.1L5999 28.6h-149.8l235 1106.1M8120.7 481.9l-64 488.7-282.4-488.7h346.4zm-107 652.8h169.4L8349.6 28.6h-164.2l-42.1 331.3h-437.5L7516 28.6h-153.6l651.3 1106.1M9247.6 1134.7h767.3l-29.3-135.5h-617.4l-70.8-335.9h542.9l-28.6-131.7h-542.9l-106.2-503h-149.8l234.8 1106.1M11563.1 1134.7l-27.9-131.8h-372.8l-207-974.3h-152.1l207 974.3h-372.7l27.9 131.8h897.6M13435.9 9382.1l-585.3-338.9-1400.8-4667h1090.9l1502.2 5005.9h-607M1.9 2095.9l1672.6 5432.4h1091.4L1389.1 3057h1824.4l-295.8-961.1H1.9M4047.6 2095.9l1672.6 5432.4h1091.4L5139 2095.9H4047.6M6434.1 2095.9l1672.5 5432.4h3111.2l-295.8-961.1H8902.2l-376.3-1229.8h1962.8l-303.9-961.1H8230l-704.5-2280.4H6434.1" transform="matrix(1.33333 0 0 -1.33333 0 1440) scale(.1)"/><path d="M16300 9281v-361.5h-4365.7l-713.1-413.4-2817.9 442.2v362.1h4194.9l712.6 412.4L16300 9281" transform="matrix(1.33333 0 0 -1.33333 0 1440) scale(.1) scale(1.1108)"/></svg>