<?xml version="1.0" encoding="UTF-8" ?>
<svg version="1.1" viewBox="0 0 2414.7 1440" xmlns="http://www.w3.org/2000/svg">
  <path
    d="m101.36 1375.8-8.5336-65.16-37.653 65.16h46.187zm-14.267-87.04h22.587l22.2 147.48h-21.894l-5.613-44.18h-58.333l-25.307 44.18h-20.48zm167.13 0h20.173l-31.32 147.48h-20.173zm175.15 67.56c9.374 0 17.187-1.87 23.44-5.62 6.254-3.73 10.427-10.48 12.507-20.24 2.2-10.48-0.107-17.62-6.92-21.44-3.68-2-8.947-3-15.76-3h-48.8l-10.64 50.3h46.173zm-51.8-67.56h68.267c11.24 0 20.147 1.64 26.706 4.92 12.52 6.29 17 17.9 13.454 34.84-1.88 8.82-5.24 16.05-10.094 21.68-5.039 5.76-11.253 10.38-18.226 13.54 5.293 2.35 8.973 5.43 11.04 9.24 2.08 3.82 2.373 10.02 0.906 18.58l-3.519 19.78c-1 5.62-1.4 9.8-1.2 12.55 0.2 4.68 1.706 7.69 4.519 9.04l-0.706 3.31h-24.493c-0.4-1.27-0.6-2.91-0.6-4.92 0-2 0.506-5.9 1.506-11.64l4.014-24.6c1.546-9.64-0.667-16.11-6.627-19.38-3.48-1.81-9.307-2.72-17.467-2.72h-45.48l-13.346 63.26h-19.974zm327.76 44.26h-19.48c-0.2-9.53-3.014-17.09-8.427-22.66-5.413-5.58-14.093-8.36-26-8.36-14.52 0-27.32 5.1-38.4 15.32-11.08 10.21-18.866 25.86-23.346 46.97-3.68 17.28-2.627 31.31 3.16 42.05 5.786 10.75 16.679 16.12 32.679 16.12 14.72 0 27.134-5.65 37.24-16.96 5.294-5.96 9.974-13.78 14.054-23.49h19.48c-4.749 15.12-13.575 28.63-25.507 39.05-14.44 12.67-31.613 18.99-51.493 18.99-17.134 0-30.413-5.19-39.867-15.56-12.386-13.72-15.52-34.91-9.44-63.55 4.614-21.76 14.16-39.6 28.614-53.52 15.666-15.12 34.439-22.69 56.319-22.69 18.68 0 32.134 4.92 40.36 14.76 8.254 9.84 11.6 21.01 10.054 33.53m157.69 23.3c9.373 0 17.186-1.87 23.439-5.62 6.254-3.73 10.427-10.48 12.507-20.24 2.2-10.48-0.107-17.62-6.933-21.44-3.68-2-8.934-3-15.76-3h-48.787l-10.653 50.3h46.187zm-51.8-67.56h68.266c11.24 0 20.147 1.64 26.707 4.92 12.52 6.29 17 17.9 13.453 34.84-1.88 8.82-5.24 16.05-10.093 21.68-5.039 5.76-11.254 10.38-18.227 13.54 5.293 2.35 8.973 5.43 11.04 9.24 2.08 3.82 2.373 10.02 0.907 18.58l-3.52 19.78c-1 5.62-1.4 9.8-1.2 12.55 0.2 4.68 1.706 7.69 4.52 9.04l-0.707 3.31h-24.493c-0.4-1.27-0.6-2.91-0.6-4.92 0-2 0.506-5.9 1.506-11.64l4.014-24.6c1.546-9.64-0.667-16.11-6.627-19.38-3.48-1.81-9.307-2.72-17.466-2.72h-45.48l-13.36 63.26h-19.974zm271.54 87.04-8.54-65.16-37.65 65.16h46.19zm-14.27-87.04h22.59l22.2 147.48h-21.9l-5.61-44.18h-58.33l-25.31 44.18h-20.479zm164.52 0h102.31l-3.91 18.06h-82.32l-9.44 44.79h72.39l-3.82 17.56h-72.38l-14.16 67.07h-19.98zm308.73 0-3.72 17.57h-49.7l-27.6 129.91h-20.28l27.6-129.91h-49.7l3.72-17.57zm249.71-1099.7-78.04 45.187-186.77 622.26h145.45l200.29-667.45zm-1791.2 971.49 223.01-724.32h145.52l-183.57 596.17h243.25l-39.44 128.15zm539.43 0 223.01-724.32h145.52l-223.01 724.32zm318.2 0 223-724.32h414.82l-39.44 128.15h-269.3l-50.18 163.97h261.71l-40.52 128.15h-260.64l-93.93 304.06z"
  />
  <path
    d="m2414.1 65.428v53.541h-646.59l-105.61 61.227-417.35-65.493v-53.629h621.29l105.54-61.079z"
  />
  <path
    d="m101.36 1375.8-8.5336-65.16-37.653 65.16h46.187zm-14.267-87.04h22.587l22.2 147.48h-21.894l-5.613-44.18h-58.333l-25.307 44.18h-20.48zm167.13 0h20.173l-31.32 147.48h-20.173zm175.15 67.56c9.374 0 17.187-1.87 23.44-5.62 6.254-3.73 10.427-10.48 12.507-20.24 2.2-10.48-0.107-17.62-6.92-21.44-3.68-2-8.947-3-15.76-3h-48.8l-10.64 50.3h46.173zm-51.8-67.56h68.267c11.24 0 20.147 1.64 26.706 4.92 12.52 6.29 17 17.9 13.454 34.84-1.88 8.82-5.24 16.05-10.094 21.68-5.039 5.76-11.253 10.38-18.226 13.54 5.293 2.35 8.973 5.43 11.04 9.24 2.08 3.82 2.373 10.02 0.906 18.58l-3.519 19.78c-1 5.62-1.4 9.8-1.2 12.55 0.2 4.68 1.706 7.69 4.519 9.04l-0.706 3.31h-24.493c-0.4-1.27-0.6-2.91-0.6-4.92 0-2 0.506-5.9 1.506-11.64l4.014-24.6c1.546-9.64-0.667-16.11-6.627-19.38-3.48-1.81-9.307-2.72-17.467-2.72h-45.48l-13.346 63.26h-19.974zm327.76 44.26h-19.48c-0.2-9.53-3.014-17.09-8.427-22.66-5.413-5.58-14.093-8.36-26-8.36-14.52 0-27.32 5.1-38.4 15.32-11.08 10.21-18.866 25.86-23.346 46.97-3.68 17.28-2.627 31.31 3.16 42.05 5.786 10.75 16.679 16.12 32.679 16.12 14.72 0 27.134-5.65 37.24-16.96 5.294-5.96 9.974-13.78 14.054-23.49h19.48c-4.749 15.12-13.575 28.63-25.507 39.05-14.44 12.67-31.613 18.99-51.493 18.99-17.134 0-30.413-5.19-39.867-15.56-12.386-13.72-15.52-34.91-9.44-63.55 4.614-21.76 14.16-39.6 28.614-53.52 15.666-15.12 34.439-22.69 56.319-22.69 18.68 0 32.134 4.92 40.36 14.76 8.254 9.84 11.6 21.01 10.054 33.53m157.69 23.3c9.373 0 17.186-1.87 23.439-5.62 6.254-3.73 10.427-10.48 12.507-20.24 2.2-10.48-0.107-17.62-6.933-21.44-3.68-2-8.934-3-15.76-3h-48.787l-10.653 50.3h46.187zm-51.8-67.56h68.266c11.24 0 20.147 1.64 26.707 4.92 12.52 6.29 17 17.9 13.453 34.84-1.88 8.82-5.24 16.05-10.093 21.68-5.039 5.76-11.254 10.38-18.227 13.54 5.293 2.35 8.973 5.43 11.04 9.24 2.08 3.82 2.373 10.02 0.907 18.58l-3.52 19.78c-1 5.62-1.4 9.8-1.2 12.55 0.2 4.68 1.706 7.69 4.52 9.04l-0.707 3.31h-24.493c-0.4-1.27-0.6-2.91-0.6-4.92 0-2 0.506-5.9 1.506-11.64l4.014-24.6c1.546-9.64-0.667-16.11-6.627-19.38-3.48-1.81-9.307-2.72-17.466-2.72h-45.48l-13.36 63.26h-19.974zm271.54 87.04-8.54-65.16-37.65 65.16h46.19zm-14.27-87.04h22.59l22.2 147.48h-21.9l-5.61-44.18h-58.33l-25.31 44.18h-20.479zm164.52 0h102.31l-3.91 18.06h-82.32l-9.44 44.79h72.39l-3.82 17.56h-72.38l-14.16 67.07h-19.98zm308.73 0-3.72 17.57h-49.7l-27.6 129.91h-20.28l27.6-129.91h-49.7l3.72-17.57zm249.71-1099.7-78.04 45.187-186.77 622.26h145.45l200.29-667.45zm-1791.2 971.49 223.01-724.32h145.52l-183.57 596.17h243.25l-39.44 128.15zm539.43 0 223.01-724.32h145.52l-223.01 724.32zm318.2 0 223-724.32h414.82l-39.44 128.15h-269.3l-50.18 163.97h261.71l-40.52 128.15h-260.64l-93.93 304.06z"
  />
  <path
    d="m2414.1 65.428v53.541h-646.59l-105.61 61.227-417.35-65.493v-53.629h621.29l105.54-61.079z"
  />
</svg>
