<svg version="1.1" id="prefix__Layer_1" xmlns="http://www.w3.org/2000/svg" x="0" y="0" viewBox="0 0 72 72" xml:space="preserve" enable-background="new 0 0 72 72"><style>.prefix__st0,.prefix__st1{fill:none;stroke:#000;stroke-width:4;stroke-miterlimit:10}.prefix__st1{stroke-linecap:round}</style><path class="prefix__st0" d="M19.7 27H4.5c-.8 0-1.4-.6-1.4-1.4V10.4c0-.8.7-1.4 1.4-1.4h15.1c.8 0 1.4.6 1.4 1.4v15.1c.1.9-.5 1.5-1.3 1.5z"/><path class="prefix__st1" d="M21.1 18 32.9 18"/><path class="prefix__st1" d="M27.9 23 32.9 18"/><path class="prefix__st1" d="M27.9 13 32.9 18"/><path class="prefix__st1" d="M12.1 27 12.1 38.8"/><path class="prefix__st1" d="M7.1 33.8 12.1 38.8"/><path class="prefix__st1" d="M17.1 33.8 12.1 38.8"/><path class="prefix__st0" d="M19.7 63H4.5c-.8 0-1.4-.6-1.4-1.4V46.4c0-.8.6-1.4 1.4-1.4h15.1c.8 0 1.4.6 1.4 1.4v15.1c.1.9-.5 1.5-1.3 1.5zM55.7 27H40.5c-.8 0-1.4-.6-1.4-1.4V10.4c0-.8.6-1.4 1.4-1.4h15.1c.8 0 1.4.6 1.4 1.4v15.1c.1.9-.5 1.5-1.3 1.5z"/><path class="prefix__st1" d="M57.1 18 68.9 18"/><path class="prefix__st1" d="M63.9 23 68.9 18"/><path class="prefix__st1" d="M63.9 13 68.9 18"/><path class="prefix__st1" d="M48.1 27 48.1 38.8"/><path class="prefix__st1" d="M43.1 33.8 48.1 38.8"/><path class="prefix__st1" d="M53.1 33.8 48.1 38.8"/><path class="prefix__st0" d="M55.7 63H40.5c-.8 0-1.4-.6-1.4-1.4V46.4c0-.8.6-1.4 1.4-1.4h15.1c.8 0 1.4.6 1.4 1.4v15.1c.1.9-.5 1.5-1.3 1.5z"/></svg>