<?xml version="1.0" encoding="UTF-8" ?>
<svg
  version="1.1"
  xmlns="http://www.w3.org/2000/svg"
  viewBox="0 0 72 72"
  fill="none"
  stroke="#000"
  stroke-width="4"
  stroke-linecap="round"
>
  <path
    d="M19.7 27H4.5c-.8 0-1.4-.6-1.4-1.4V10.4c0-.8.7-1.4 1.4-1.4h15.1c.8 0 1.4.6 1.4 1.4v15.1c.1.9-.5 1.5-1.3 1.5z"
  />
  <path d="M21.1 18 32.9 18" />
  <path d="M27.9 23 32.9 18" />
  <path d="M27.9 13 32.9 18" />
  <path d="M12.1 27 12.1 38.8" />
  <path d="M7.1 33.8 12.1 38.8" />
  <path d="M17.1 33.8 12.1 38.8" />
  <path
    d="M19.7 63H4.5c-.8 0-1.4-.6-1.4-1.4V46.4c0-.8.6-1.4 1.4-1.4h15.1c.8 0 1.4.6 1.4 1.4v15.1c.1.9-.5 1.5-1.3 1.5zM55.7 27H40.5c-.8 0-1.4-.6-1.4-1.4V10.4c0-.8.6-1.4 1.4-1.4h15.1c.8 0 1.4.6 1.4 1.4v15.1c.1.9-.5 1.5-1.3 1.5z"
  />
  <path d="M57.1 18 68.9 18" />
  <path d="M63.9 23 68.9 18" />
  <path d="M63.9 13 68.9 18" />
  <path d="M48.1 27 48.1 38.8" />
  <path d="M43.1 33.8 48.1 38.8" />
  <path d="M53.1 33.8 48.1 38.8" />
  <path
    d="M55.7 63H40.5c-.8 0-1.4-.6-1.4-1.4V46.4c0-.8.6-1.4 1.4-1.4h15.1c.8 0 1.4.6 1.4 1.4v15.1c.1.9-.5 1.5-1.3 1.5z"
  />
</svg>
