<?xml version="1.0" encoding="UTF-8" ?>
<svg version="1.1" xmlns="http://www.w3.org/2000/svg" viewBox="0 0 122.6 122.9">
  <path
    d="M110.6 72.6a5.8 5.8 0 0 1 11.6 0v33.2a17 17 0 0 1-17.1 17.1h-88A17 17 0 0 1 0 105.8V17.2A17 17 0 0 1 17.1.1h33a5.8 5.8 0 0 1 0 11.6h-33c-1.5 0-2.9.6-3.9 1.6s-1.6 2.4-1.6 3.9v88.6c0 1.5.6 2.9 1.6 3.9s2.4 1.6 3.9 1.6H105c1.5 0 2.9-.6 3.9-1.6s1.6-2.4 1.6-3.9l.1-33.2zm1.8-55.1L54 76.6c-2.2 2.3-5.9 2.3-8.2.1s-2.3-5.9-.1-8.2l56.2-56.9H78.6a5.8 5.8 0 0 1 0-11.6h26.5c5.1 0 11.7-.9 15.7 3.1 2.5 2.5 1.9 22.5 1.6 34.1l-.2 6.9a5.8 5.8 0 0 1-11.6 0l.2-7.2c.2-6 1.1-14 1.6-19.4z"
  />
</svg>
