<?xml version="1.0" encoding="UTF-8" ?>
<svg version="1.1" xmlns="http://www.w3.org/2000/svg" viewBox="0 0 225 225">
  <path
    d="M85.6 71.4c-17.1 0-34.2.4-51.4-.1C13.7 70.7 0 54.8.5 33.1 1 14.1 16.1-.5 35.7-.6h73.8a34.8 34.8 0 0 1 35.2 34.7c.2 10.4-.2 20.7.2 31.1.2 5.1-1.6 6.8-6.5 6.7-17.6-.2-35.2-.1-52.8-.1v-.4zM36.7 53a18 18 0 0 0 17.4-17.7 18 18 0 0 0-18.3-17.5c-9.4.4-17.2 8.8-17 18.1A18 18 0 0 0 36.7 53zm71.9 0c9.2 0 17.5-8.2 17.7-17.5.2-9.1-8.1-17.6-17.4-17.7A17.9 17.9 0 0 0 91 34.9 18.2 18.2 0 0 0 108.6 53zM144.5 140.1v47c-.1 21.1-14.1 36.8-33.3 37.3-22.4.6-38.3-13.3-38.9-35.5-.7-24.3-.6-48.7 0-73 .6-20.6 16-34.9 36.6-35.2 9.7-.1 19.3.2 28.9-.1 5.1-.1 6.8 1.8 6.7 6.8v52.7zm-53.7 48.2c-.2 9.7 8 18.1 17.6 18.2 9.8 0 18-8 18.1-17.8.1-9-8.4-17.8-17.3-17.9a18.3 18.3 0 0 0-18.4 17.5zm17.4-54c9.7.2 18-7.8 18.3-17.6.2-9.1-8.6-18.1-17.9-18.1-9.5 0-17.7 8.3-17.8 18.1a18 18 0 0 0 17.4 17.6zM177.7 71.1h-16.6c-4.7.1-7.1-1.6-7.1-6.7.2-10.8-.3-21.7.2-32.5.9-19 16.9-32.6 37.4-32.2a34.4 34.4 0 0 1 33.8 33.5c.5 22.6-13.7 37.4-36.1 37.7-3.8.2-7.7.1-11.6.2 0-.1 0 0 0 0zm13-53.5c-9.7-.6-17.9 7-18.6 17.1-.6 9.4 7.4 17.9 17.4 18.4 8.8.5 17.6-7.2 18.2-16.1a18 18 0 0 0-17-19.4z"
  />
</svg>
