<?xml version="1.0" encoding="UTF-8" ?>
<svg version="1.1" viewBox="0 0 122.9 122.9" xmlns="http://www.w3.org/2000/svg">
  <path
    d="m18.351 0c-1.5402-0.01056-3.0207 0.60188-4.1016 1.6992-1.1 1.1-1.6992 2.5016-1.6992 4.1016v111.3c0 1.6 0.59922 3.1012 1.6992 4.2012 1.1 1.1 2.5016 1.6992 4.1016 1.6992h86.199c1.5402 0.0106 3.0188-0.60188 4.0996-1.6992 1.1-1.1 1.7012-2.5016 1.7012-4.1016v-111.3c0-1.6-0.60117-3.1012-1.7012-4.2012-1.1-1.1-2.4996-1.6992-4.0996-1.6992zm2.2988 7.8008h81.5l0.40039 0.19922 0.19922 0.40039v106.33l-0.19922 0.26562c-0.1 0.1-0.10078 0.19922-0.30078 0.19922h-81.5l-0.39844-0.19922-0.20117-0.40039v-106.33l0.20117-0.26758c0.1-0.1 0.09883-0.19922 0.29883-0.19922zm16.824 8.8496c-2.1606 0-3.9004 1.7398-3.9004 3.9004s1.7398 3.8984 3.9004 3.8984h10.553c2.1606 0 3.9004-1.7378 3.9004-3.8984s-1.7398-3.9004-3.9004-3.9004zm33.553 0c-2.1606 0-3.9004 1.7398-3.9004 3.9004s1.7398 3.8984 3.9004 3.8984h18.248c2.1606 0 3.8984-1.7378 3.8984-3.8984s-1.7378-3.9004-3.8984-3.9004zm-37.697 11.699c-2.1606 0-3.8984 1.7398-3.8984 3.9004s1.7378 3.9004 3.8984 3.9004h18.84c2.1606 0 3.9004-1.7398 3.9004-3.9004s-1.7398-3.9004-3.9004-3.9004zm39.324 0c-2.1606 0-3.9004 1.7398-3.9004 3.9004s1.7398 3.9004 3.9004 3.9004h14.992c2.1606 0 3.9004-1.7398 3.9004-3.9004s-1.7398-3.9004-3.9004-3.9004zm-37.104 11.701c-2.1606 0-3.9004 1.7378-3.9004 3.8984s1.7398 3.9004 3.9004 3.9004h14.4c2.1606 0 3.9004-1.7398 3.9004-3.9004s-1.7398-3.8984-3.9004-3.8984zm39.473 0c-2.1606 0-3.9004 1.7378-3.9004 3.8984s1.7398 3.9004 3.9004 3.9004h10.256c2.1606 0 3.9004-1.7398 3.9004-3.9004s-1.7398-3.8984-3.9004-3.8984zm-37.844 11.699c-2.1606 0-3.9004 1.7398-3.9004 3.9004s1.7398 3.9004 3.9004 3.9004h11.143c2.1606 0 3.9004-1.7398 3.9004-3.9004s-1.7398-3.9004-3.9004-3.9004zm37.695 0c-2.1606 0-3.9004 1.7398-3.9004 3.9004s1.7398 3.9004 3.9004 3.9004h10.553c2.1606 0 3.8984-1.7398 3.8984-3.9004s-1.7378-3.9004-3.8984-3.9004zm-40.064 11.699c-2.1606 0-3.9004 1.7398-3.9004 3.9004s1.7398 3.9004 3.9004 3.9004h15.881c2.1606 0 3.8984-1.7398 3.8984-3.9004 1e-6 -2.1606-1.7378-3.9004-3.8984-3.9004zm34.588 0c-2.1606 0-3.9004 1.7398-3.9004 3.9004s1.7398 3.9004 3.9004 3.9004h21.504c2.1606 0 3.9004-1.7398 3.9004-3.9004s-1.7398-3.9004-3.9004-3.9004zm-33.996 11.701c-2.1606 0-3.9004 1.7398-3.9004 3.9004s1.7398 3.8984 3.9004 3.8984h14.697c2.1606 0 3.8984-1.7378 3.8984-3.8984s-1.7378-3.9004-3.8984-3.9004zm36.068 0c-2.1606 0-3.9004 1.7398-3.9004 3.9004s1.7398 3.8984 3.9004 3.8984h17.359c2.1606 0 3.9004-1.7378 3.9004-3.8984s-1.7398-3.9004-3.9004-3.9004zm-37.992 11.699c-2.1606 0-3.9004 1.7398-3.9004 3.9004s1.7398 3.9004 3.9004 3.9004h18.545c2.1606 0 3.8984-1.7398 3.8984-3.9004s-1.7378-3.9004-3.8984-3.9004zm39.768 0c-2.1606 0-3.8984 1.7398-3.8984 3.9004s1.7378 3.9004 3.8984 3.9004h13.809c2.1606 0 3.9004-1.7398 3.9004-3.9004s-1.7398-3.9004-3.9004-3.9004zm-39.176 11.701c-2.1606 0-3.9004 1.7378-3.9004 3.8984s1.7398 3.9004 3.9004 3.9004h17.361c2.1606 0 3.8984-1.7398 3.8984-3.9004s-1.7378-3.8984-3.8984-3.8984zm35.773 0c-2.1606 0-3.9004 1.7378-3.9004 3.8984s1.7398 3.9004 3.9004 3.9004h20.615c2.1606 0 3.9004-1.7398 3.9004-3.9004s-1.7398-3.8984-3.9004-3.8984z"
  />
</svg>
