<?xml version="1.0" encoding="UTF-8" ?>
<svg version="1.1" xmlns="http://www.w3.org/2000/svg" viewBox="0 0 78.6 78.6">
  <path
    d="M76.4 12.8 44.6 44.6a7.5 7.5 0 0 1-10.6 0c-3-2.9-3-7.7 0-10.6L65.8 2.2a7.5 7.5 0 0 1 10.6 0 7.5 7.5 0 0 1 0 10.6z"
  />
  <path
    d="M12.7 2.2 44.6 34a7.5 7.5 0 0 1 0 10.6 7.5 7.5 0 0 1-10.6 0L2.1 12.8a7.5 7.5 0 0 1 0-10.6c3-2.9 7.7-2.9 10.6 0z"
  />
  <path
    d="M2.1 65.8 34 34a7.5 7.5 0 0 1 10.6 0 7.5 7.5 0 0 1 0 10.6L12.7 76.4a7.5 7.5 0 0 1-10.6 0 7.5 7.5 0 0 1 0-10.6z"
  />
  <path
    d="m44.6 34 31.8 31.8a7.5 7.5 0 0 1 0 10.6 7.5 7.5 0 0 1-10.6 0L34 44.6c-3-2.9-3-7.7 0-10.6a7.5 7.5 0 0 1 10.6 0z"
  />
</svg>
