<?xml version="1.0" encoding="utf-8"?>
<!-- Generator: Adobe Illustrator 25.4.1, SVG Export Plug-In . SVG Version: 6.00 Build 0)  -->
<svg version="1.1" id="Layer_1" xmlns="http://www.w3.org/2000/svg" xmlns:xlink="http://www.w3.org/1999/xlink" x="0px" y="0px"
	 viewBox="0 0 106.9 61" style="enable-background:new 0 0 106.9 61;" xml:space="preserve">
<g>
	<path d="M104.7,12.8l-46,46c-2.9,2.9-7.7,2.9-10.6,0l0,0c-2.9-2.9-2.9-7.7,0-10.6l46-46c2.9-2.9,7.7-2.9,10.6,0l0,0
		C107.7,5.1,107.7,9.9,104.7,12.8z"/>
	<path d="M48.2,58.8l-46-46c-2.9-2.9-2.9-7.7,0-10.6l0,0c2.9-2.9,7.7-2.9,10.6,0l46,46c2.9,2.9,2.9,7.7,0,10.6l0,0
		C55.8,61.7,51.1,61.7,48.2,58.8z"/>
</g>
</svg>
