<?xml version="1.0" encoding="utf-8"?>
<!-- Generator: Adobe Illustrator 25.4.1, SVG Export Plug-In . SVG Version: 6.00 Build 0)  -->
<svg version="1.1" id="Layer_1" xmlns="http://www.w3.org/2000/svg" xmlns:xlink="http://www.w3.org/1999/xlink" x="0px" y="0px"
	 viewBox="0 0 100.3 57.1" style="enable-background:new 0 0 100.3 57.1;" xml:space="preserve">
<path d="M45.2,55.1L2.1,11.9c-2.7-2.7-2.7-7.2,0-9.9l0,0c2.7-2.7,7.2-2.7,9.9,0l43.1,43.1c2.7,2.7,2.7,7.2,0,9.9l0,0
	C52.3,57.8,47.9,57.8,45.2,55.1z"/>
<path d="M55.1,55.1l43.1-43.1c2.7-2.7,2.7-7.2,0-9.9l0,0c-2.7-2.7-7.2-2.7-9.9,0L45.2,45.2c-2.7,2.7-2.7,7.2,0,9.9l0,0
	C47.9,57.8,52.3,57.8,55.1,55.1z"/>
</svg>
