<svg xmlns="http://www.w3.org/2000/svg" shape-rendering="geometricPrecision" text-rendering="geometricPrecision" image-rendering="optimizeQuality" fill-rule="evenodd" clip-rule="evenodd" viewBox="0 0 640 640"><path d="M161.4 279.1 69.8 120.5a319.8 319.8 0 0 1 525.5 36.4H334.2A164 164 0 0 0 161.4 279zm273.1-76H618A320 320 0 0 1 323.7 640l130.8-226.6a163.2 163.2 0 0 0-20-210.2zm-230.8 117a116.4 116.4 0 0 1 232.5 0c0 64-52.1 116.2-116.2 116.2S203.7 384 203.7 320zM364 477.7l-91.6 158.7A320 320 0 0 1 41 163l130.7 226.3a164 164 0 0 0 192.1 88.4z"/></svg>