<svg version="1.1" xmlns="http://www.w3.org/2000/svg" x="0" y="0" viewBox="0 0 100 100" xml:space="preserve" enable-background="new 0 0 100 100"><linearGradient id="a" gradientUnits="userSpaceOnUse" x1=".2" y1="97.8" x2="100.2" y2="98.2"><stop offset="0" stop-color="#61cae3"/><stop offset="1" stop-color="#3489c9"/></linearGradient><path d="M98 96H2a2 2 0 0 0-2 2c0 1.1.9 2 2 2h96a2 2 0 0 0 2-2 2 2 0 0 0-2-2z" fill="url(#a)"/><linearGradient id="b" gradientUnits="userSpaceOnUse" x1=".1" y1="89.8" x2="100.2" y2="90.2"><stop offset="0" stop-color="#61cae3"/><stop offset="1" stop-color="#3489c9"/></linearGradient><path d="M6 90c0 1.1.9 2 2 2h84a2 2 0 0 0 2-2 2 2 0 0 0-2-2H8a2 2 0 0 0-2 2z" fill="url(#b)"/><linearGradient id="c" gradientUnits="userSpaceOnUse" x1="-.1" y1="61.7" x2="100" y2="62.1"><stop offset="0" stop-color="#61cae3"/><stop offset="1" stop-color="#3489c9"/></linearGradient><path d="M76 84h8a2 2 0 0 0 2-2V46c0-1.1.9-2 2-2s2-.9 2-2a2 2 0 0 0-2-2H72a2 2 0 0 0-2 2c0 1.1.9 2 2 2s2 .9 2 2v36c0 1.1.9 2 2 2z" fill="url(#c)"/><linearGradient id="d" gradientUnits="userSpaceOnUse" x1="-.1" y1="61.8" x2="100" y2="62.2"><stop offset="0" stop-color="#61cae3"/><stop offset="1" stop-color="#3489c9"/></linearGradient><path d="M46 84h8a2 2 0 0 0 2-2V46c0-1.1.9-2 2-2s2-.9 2-2a2 2 0 0 0-2-2H42a2 2 0 0 0-2 2c0 1.1.9 2 2 2s2 .9 2 2v36c0 1.1.9 2 2 2z" fill="url(#d)"/><linearGradient id="e" gradientUnits="userSpaceOnUse" x1="-.1" y1="61.9" x2="100" y2="62.3"><stop offset="0" stop-color="#61cae3"/><stop offset="1" stop-color="#3489c9"/></linearGradient><path d="M16 84h8a2 2 0 0 0 2-2V46c0-1.1.9-2 2-2s2-.9 2-2a2 2 0 0 0-2-2H12a2 2 0 0 0-2 2c0 1.1.9 2 2 2s2 .9 2 2v36c0 1.1.9 2 2 2z" fill="url(#e)"/><linearGradient id="f" gradientUnits="userSpaceOnUse" x1="9.9" y1="-6.2" x2="107.2" y2="91.1"><stop offset="0" stop-color="#61cae3"/><stop offset="1" stop-color="#3489c9"/></linearGradient><path d="M2.2 36h95.6c2.1 0 3-2.5 1.3-3.7l-48-32a2 2 0 0 0-2.2 0l-48 32C-.8 33.5.1 36 2.2 36zM40 12a7 7 0 0 1 9.9 0 7 7 0 1 1 10 10l-8.6 8.4a2 2 0 0 1-2.8 0L40 22a7 7 0 0 1 0-9.9z" fill="url(#f)"/></svg>