<?xml version="1.0" encoding="utf-8"?>
<!-- Generator: Adobe Illustrator 25.2.3, SVG Export Plug-In . SVG Version: 6.00 Build 0)  -->
<svg version="1.1" id="Layer_1" xmlns="http://www.w3.org/2000/svg" xmlns:xlink="http://www.w3.org/1999/xlink" x="0px" y="0px"
	 viewBox="0 0 122.9 120.9" style="enable-background:new 0 0 122.9 120.9;" xml:space="preserve">
<path d="M84.6,47c3-3.1,7.8-3.1,10.9-0.2s3.1,7.8,0.2,10.9c-0.1,0.1-0.2,0.2-0.3,0.3L66.1,86.9c-3,3-7.8,3-10.8,0L26.4,58.4
	c-3-3-3.1-7.9-0.1-10.9s7.9-3.1,10.9-0.1l15.9,15.8l0.2-55.5c0.2-4.3,3.8-7.6,8-7.4c4.1,0.2,7.3,3.5,7.4,7.5l-0.2,55L84.6,47z
	 M0,113.5l0.1-30.2C0,79,3.4,75.5,7.6,75.4s7.8,3.3,7.9,7.5c0,0.2,0,0.4,0,0.5l-0.1,22c30.7,0.1,61.3,0.1,91.9,0l0.1-22.1
	c0-4.3,3.5-7.7,7.8-7.7s7.7,3.5,7.7,7.8l-0.1,30h-0.1c-0.2,4.1-3.5,7.3-7.6,7.4c-35.8,0.1-71.6,0.1-107.4,0
	C3.6,120.8,0.2,117.6,0,113.5z"/>
</svg>
