<svg version="1.1" xmlns="http://www.w3.org/2000/svg" x="0" y="0" viewBox="0 0 512 512" xml:space="preserve" enable-background="new 0 0 512 512"><path d="M296.1 354.2C346 348.3 399 330.2 399 244c0-24.5-8.6-44.4-22.7-59.9 2.3-5.9 9.5-28.1-2.7-58.9 0 0-18.1-5.9-60.8 22.7-18.1-5-38.1-8.2-56.7-8.2-19.1 0-39 3.2-56.7 8.2-43.1-28.6-61.2-22.7-61.2-22.7-12.2 30.8-5 53.1-2.7 58.9a86.3 86.3 0 0 0-22.7 59.9c0 86.2 53.1 104.3 102.9 110.2a51 51 0 0 0-14.5 30.4c-12.7 5.4-45.8 15.9-65.8-18.6 0 0-11.8-21.3-34-22.7 0 0-22.2-.5-1.8 13.6 0 0 15 6.8 24.9 32.7 0 0 13.6 43.1 76.2 29.5v38.5c0 5.9-4.5 12.7-15.9 10.9a224.2 224.2 0 0 1 71.4-436.7c123.3 0 224 100.2 223.6 224 0 98.9-63.9 182.8-152.8 212.7-11.3 2.3-15.9-4.5-15.9-10.9v-62.1c0-20.9-6.8-34.5-15-41.3zm215.9-98a256.1 256.1 0 1 0-512 0 256.1 256.1 0 0 0 512 0z" fill-rule="evenodd" clip-rule="evenodd"/></svg>