<?xml version="1.0" encoding="UTF-8"?>
<svg fill="none" version="1.1" viewBox="0 0 512 512" xmlns="http://www.w3.org/2000/svg">
<g transform="matrix(3.6482 0 0 3.6482 -518.34 -60.439)" fill="#000" aria-label="G">
<path d="m269.44 138.16q-7.5938 8.4375-22.219 13.594t-32.062 5.1562q-26.812 0-42.844-16.406t-17.156-45.656l-0.0937-11.812q0-20.156 7.125-35.156 7.125-15.094 20.344-23.156 13.312-8.1562 30.75-8.1562 25.5 0 39.562 11.719 14.156 11.625 16.5 34.781h-31.688q-1.6875-11.438-7.3125-16.312t-15.938-4.875q-12.375 0-19.125 10.5t-6.8438 30v8.25q0 20.438 6.9375 30.75 7.0312 10.219 22.031 10.219 12.844 0 19.125-5.7188v-21.188h-22.875v-22.594h55.781z" fill="#000"/>
</g>
</svg>
