<?xml version="1.0" encoding="utf-8"?>
<!-- Generator: Adobe Illustrator 25.4.1, SVG Export Plug-In . SVG Version: 6.00 Build 0)  -->
<svg version="1.1"
	 id="svg2" xmlns:cc="http://creativecommons.org/ns#" xmlns:dc="http://purl.org/dc/elements/1.1/" xmlns:rdf="http://www.w3.org/1999/02/22-rdf-syntax-ns#" xmlns:svg="http://www.w3.org/2000/svg"
	 xmlns="http://www.w3.org/2000/svg" xmlns:xlink="http://www.w3.org/1999/xlink" x="0px" y="0px" viewBox="0 0 2414.7 1440"
	 style="enable-background:new 0 0 2414.7 1440;" xml:space="preserve">
<g id="g10" transform="matrix(1.3333333,0,0,-1.3333333,0,1440)">
	<g id="g12" transform="scale(0.1)">
		<path id="path14" d="M760.2,481.9l-64,488.7L413.8,481.9H760.2z M653.2,1134.7h169.4L989.1,28.6H824.9l-42.1,331.3H345.3
			L155.5,28.6H1.9L653.2,1134.7"/>
		<path id="path16" d="M1906.7,1134.7H2058L1823.1,28.6h-151.3L1906.7,1134.7"/>
		<path id="path18" d="M3220.3,628c70.3,0,128.9,14,175.8,42.1c46.9,28,78.2,78.6,93.8,151.8c16.5,78.6-0.8,132.2-51.9,160.8
			c-27.6,15-67.1,22.5-118.2,22.5h-366L2874,628H3220.3z M2831.8,1134.7h512c84.3,0,151.1-12.3,200.3-36.9
			c93.9-47.2,127.5-134.3,100.9-261.3c-14.1-66.2-39.3-120.4-75.7-162.6c-36.4-42.2-81.9-76-136.7-101.6
			c39.7-17.6,67.3-40.7,82.8-69.3c15.6-28.6,17.8-75.1,6.8-139.3l-26.4-148.4c-7.5-42.1-10.5-73.5-9-94.1
			c1.5-35.1,12.8-57.7,33.9-67.8l-5.3-24.8h-183.7c-3,9.5-4.5,21.8-4.5,36.9c0,15,3.8,44.2,11.3,87.3l30.1,184.5
			c11.6,72.3-5,120.8-49.7,145.3c-26.1,13.6-69.8,20.4-131,20.4h-341.1L2746.7,28.6h-149.8L2831.8,1134.7"/>
		<path id="path20" d="M5290,802.7h-146.1c-1.5,71.5-22.6,128.2-63.2,170c-40.6,41.8-105.7,62.7-195,62.7
			c-108.9,0-204.9-38.3-288-114.9c-83.1-76.6-141.5-194-175.1-352.3c-27.6-129.6-19.7-234.8,23.7-315.4
			c43.4-80.6,125.1-120.9,245.1-120.9c110.4,0,203.5,42.4,279.3,127.2c39.7,44.7,74.8,103.4,105.4,176.2h146.1
			c-37.6-116.4-101.4-214.1-191.3-292.9C4922.6,47.4,4793.8,0,4644.7,0c-128.5,0-228.1,38.9-299,116.7
			c-92.9,102.9-116.4,261.8-70.8,476.6c34.6,163.2,106.2,297,214.6,401.4c117.5,113.4,258.3,170.2,422.4,170.2
			c140.1,0,241-36.9,302.7-110.7C5276.5,980.4,5301.6,896.6,5290,802.7"/>
		<path id="path22" d="M6472.7,628c70.3,0,128.9,14,175.8,42.1c46.9,28,78.2,78.6,93.8,151.8c16.5,78.6-0.8,132.2-52,160.8
			c-27.6,15-67,22.5-118.2,22.5h-365.9L6126.3,628H6472.7z M6084.2,1134.7h512c84.3,0,151.1-12.3,200.3-36.9
			c93.9-47.2,127.5-134.3,100.9-261.3c-14.1-66.2-39.3-120.4-75.7-162.6c-36.4-42.2-81.9-76-136.7-101.6
			c39.7-17.6,67.3-40.7,82.8-69.3c15.6-28.6,17.8-75.1,6.8-139.3l-26.4-148.4c-7.5-42.1-10.5-73.5-9-94.1
			c1.5-35.1,12.8-57.7,33.9-67.8l-5.3-24.8h-183.7c-3,9.5-4.5,21.8-4.5,36.9c0,15,3.8,44.2,11.3,87.3l30.1,184.5
			c11.6,72.3-5,120.8-49.7,145.3c-26.1,13.6-69.8,20.4-131,20.4h-341.1L5999,28.6h-149.8L6084.2,1134.7"/>
		<path id="path24" d="M8120.7,481.9l-64,488.7l-282.4-488.7L8120.7,481.9z M8013.7,1134.7h169.4L8349.6,28.6h-164.2l-42.1,331.3
			h-437.5L7516,28.6h-153.6L8013.7,1134.7"/>
		<path id="path26" d="M9247.6,1134.7h767.3l-29.3-135.5h-617.4l-70.8-335.9h542.9l-28.6-131.7h-542.9l-106.2-503h-149.8
			L9247.6,1134.7"/>
		<path id="path28" d="M11563.1,1134.7l-27.9-131.8h-372.8l-207-974.3h-152.1l207,974.3h-372.7l27.9,131.8H11563.1"/>
		<path id="path30" d="M13435.9,9382.1l-585.3-338.9l-1400.8-4667h1090.9l1502.2,5005.9H13435.9"/>
		<path id="path32" d="M1.9,2095.9l1672.6,5432.4h1091.4L1389.1,3057h1824.4l-295.8-961.1H1.9"/>
		<path id="path34" d="M4047.6,2095.9l1672.6,5432.4h1091.4L5139,2095.9H4047.6"/>
		<path id="path36" d="M6434.1,2095.9l1672.5,5432.4h3111.2l-295.8-961.1H8902.2l-376.3-1229.8h1962.8l-303.9-961.1H8230
			l-704.5-2280.4H6434.1"/>
		<g id="g38" transform="scale(1.1108)">
			<path id="path40" d="M16300,9281v-361.5h-4365.7l-713.1-413.4l-2817.9,442.2v362.1h4194.9l712.6,412.4L16300,9281"/>
		</g>
		<path id="path42" d="M760.2,481.9l-64,488.7L413.8,481.9H760.2z M653.2,1134.7h169.4L989.1,28.6H824.9l-42.1,331.3H345.3
			L155.5,28.6H1.9L653.2,1134.7"/>
		<path id="path44" d="M1906.7,1134.7H2058L1823.1,28.6h-151.3L1906.7,1134.7"/>
		<path id="path46" d="M3220.3,628c70.3,0,128.9,14,175.8,42.1c46.9,28,78.2,78.6,93.8,151.8c16.5,78.6-0.8,132.2-51.9,160.8
			c-27.6,15-67.1,22.5-118.2,22.5h-366L2874,628H3220.3z M2831.8,1134.7h512c84.3,0,151.1-12.3,200.3-36.9
			c93.9-47.2,127.5-134.3,100.9-261.3c-14.1-66.2-39.3-120.4-75.7-162.6c-36.4-42.2-81.9-76-136.7-101.6
			c39.7-17.6,67.3-40.7,82.8-69.3c15.6-28.6,17.8-75.1,6.8-139.3l-26.4-148.4c-7.5-42.1-10.5-73.5-9-94.1
			c1.5-35.1,12.8-57.7,33.9-67.8l-5.3-24.8h-183.7c-3,9.5-4.5,21.8-4.5,36.9c0,15,3.8,44.2,11.3,87.3l30.1,184.5
			c11.6,72.3-5,120.8-49.7,145.3c-26.1,13.6-69.8,20.4-131,20.4h-341.1L2746.7,28.6h-149.8L2831.8,1134.7"/>
		<path id="path48" d="M5290,802.7h-146.1c-1.5,71.5-22.6,128.2-63.2,170c-40.6,41.8-105.7,62.7-195,62.7
			c-108.9,0-204.9-38.3-288-114.9c-83.1-76.6-141.5-194-175.1-352.3c-27.6-129.6-19.7-234.8,23.7-315.4
			c43.4-80.6,125.1-120.9,245.1-120.9c110.4,0,203.5,42.4,279.3,127.2c39.7,44.7,74.8,103.4,105.4,176.2h146.1
			c-37.6-116.4-101.4-214.1-191.3-292.9C4922.6,47.4,4793.8,0,4644.7,0c-128.5,0-228.1,38.9-299,116.7
			c-92.9,102.9-116.4,261.8-70.8,476.6c34.6,163.2,106.2,297,214.6,401.4c117.5,113.4,258.3,170.2,422.4,170.2
			c140.1,0,241-36.9,302.7-110.7C5276.5,980.4,5301.6,896.6,5290,802.7"/>
		<path id="path50" d="M6472.7,628c70.3,0,128.9,14,175.8,42.1c46.9,28,78.2,78.6,93.8,151.8c16.5,78.6-0.8,132.2-52,160.8
			c-27.6,15-67,22.5-118.2,22.5h-365.9L6126.3,628H6472.7z M6084.2,1134.7h512c84.3,0,151.1-12.3,200.3-36.9
			c93.9-47.2,127.5-134.3,100.9-261.3c-14.1-66.2-39.3-120.4-75.7-162.6c-36.4-42.2-81.9-76-136.7-101.6
			c39.7-17.6,67.3-40.7,82.8-69.3c15.6-28.6,17.8-75.1,6.8-139.3l-26.4-148.4c-7.5-42.1-10.5-73.5-9-94.1
			c1.5-35.1,12.8-57.7,33.9-67.8l-5.3-24.8h-183.7c-3,9.5-4.5,21.8-4.5,36.9c0,15,3.8,44.2,11.3,87.3l30.1,184.5
			c11.6,72.3-5,120.8-49.7,145.3c-26.1,13.6-69.8,20.4-131,20.4h-341.1L5999,28.6h-149.8L6084.2,1134.7"/>
		<path id="path52" d="M8120.7,481.9l-64,488.7l-282.4-488.7L8120.7,481.9z M8013.7,1134.7h169.4L8349.6,28.6h-164.2l-42.1,331.3
			h-437.5L7516,28.6h-153.6L8013.7,1134.7"/>
		<path id="path54" d="M9247.6,1134.7h767.3l-29.3-135.5h-617.4l-70.8-335.9h542.9l-28.6-131.7h-542.9l-106.2-503h-149.8
			L9247.6,1134.7"/>
		<path id="path56" d="M11563.1,1134.7l-27.9-131.8h-372.8l-207-974.3h-152.1l207,974.3h-372.7l27.9,131.8H11563.1"/>
		<path id="path58" d="M13435.9,9382.1l-585.3-338.9l-1400.8-4667h1090.9l1502.2,5005.9H13435.9"/>
		<path id="path60" d="M1.9,2095.9l1672.6,5432.4h1091.4L1389.1,3057h1824.4l-295.8-961.1H1.9"/>
		<path id="path62" d="M4047.6,2095.9l1672.6,5432.4h1091.4L5139,2095.9H4047.6"/>
		<path id="path64" d="M6434.1,2095.9l1672.5,5432.4h3111.2l-295.8-961.1H8902.2l-376.3-1229.8h1962.8l-303.9-961.1H8230
			l-704.5-2280.4H6434.1"/>
		<g id="g66" transform="scale(1.1108)">
			<path id="path68" d="M16300,9281v-361.5h-4365.7l-713.1-413.4l-2817.9,442.2v362.1h4194.9l712.6,412.4L16300,9281"/>
		</g>
	</g>
</g>
</svg>
