<?xml version="1.0" encoding="UTF-8" standalone="no"?>
<svg
   xmlns:dc="http://purl.org/dc/elements/1.1/"
   xmlns:cc="http://creativecommons.org/ns#"
   xmlns:rdf="http://www.w3.org/1999/02/22-rdf-syntax-ns#"
   xmlns:svg="http://www.w3.org/2000/svg"
   xmlns="http://www.w3.org/2000/svg"
   viewBox="0 0 2414.6667 1440"
   height="1440"
   width="2414.6667"
   xml:space="preserve"
   id="svg2"
   version="1.1"><metadata
     id="metadata8"><rdf:RDF><cc:Work
         rdf:about=""><dc:format>image/svg+xml</dc:format><dc:type
           rdf:resource="http://purl.org/dc/dcmitype/StillImage" /></cc:Work></rdf:RDF></metadata><defs
     id="defs6" /><g
     transform="matrix(1.3333333,0,0,-1.3333333,0,1440)"
     id="g10"><g
       transform="scale(0.1)"
       id="g12"><path
         id="path14"
         style="fill:#2e2d2d;fill-opacity:1;fill-rule:nonzero;stroke:none"
         d="m 760.184,481.898 -64,488.692 L 413.809,481.898 Z M 653.242,1134.72 H 822.668 L 989.082,28.6016 H 824.906 L 782.773,359.902 H 345.277 L 155.508,28.6016 H 1.91016 L 653.242,1134.72" /><path
         id="path16"
         style="fill:#2e2d2d;fill-opacity:1;fill-rule:nonzero;stroke:none"
         d="m 1906.67,1134.72 h 151.36 L 1823.12,28.6016 h -151.35 l 234.9,1106.1184" /><path
         id="path18"
         style="fill:#2e2d2d;fill-opacity:1;fill-rule:nonzero;stroke:none"
         d="m 3220.34,628 c 70.28,0 128.9,14 175.83,42.102 46.93,28 78.21,78.597 93.77,151.769 16.53,78.621 -0.77,132.231 -51.95,160.82 -27.61,15.02 -67.05,22.549 -118.24,22.549 H 2953.79 L 2873.96,628 Z m -388.5,506.72 h 512.03 c 84.3,0 151.09,-12.28 200.26,-36.88 93.89,-47.2 127.51,-134.289 100.93,-261.309 -14.07,-66.23 -39.31,-120.429 -75.7,-162.629 -36.4,-42.203 -81.93,-76.004 -136.66,-101.601 39.67,-17.602 67.28,-40.699 82.83,-69.301 15.55,-28.602 17.79,-75.098 6.76,-139.301 l -26.35,-148.398 c -7.53,-42.102 -10.53,-73.5 -9.01,-94.102 1.48,-35.0974 12.78,-57.699 33.89,-67.8006 l -5.29,-24.7968 h -183.72 c -3.01,9.5 -4.53,21.8007 -4.53,36.8984 0,15 3.76,44.199 11.3,87.301 l 30.12,184.5 c 11.56,72.301 -5.02,120.801 -49.71,145.301 C 3292.91,496.199 3249.2,503 3187.98,503 H 2846.89 L 2746.72,28.6016 H 2596.88 L 2831.84,1134.72" /><path
         id="path20"
         style="fill:#2e2d2d;fill-opacity:1;fill-rule:nonzero;stroke:none"
         d="m 5290.04,802.652 h -146.11 c -1.48,71.528 -22.59,128.18 -63.25,170 -40.65,41.768 -105.68,62.708 -195.01,62.708 -108.91,0 -204.92,-38.321 -288.02,-114.93 -83.09,-76.641 -141.45,-194.028 -175.07,-352.328 -27.6,-129.602 -19.72,-234.801 23.71,-315.403 43.44,-80.597 125.15,-120.898 245.13,-120.898 110.39,0 203.53,42.398 279.32,127.199 39.67,44.699 74.81,103.402 105.42,176.199 h 146.11 C 5184.62,318.801 5120.84,221.102 5030.98,142.301 4922.56,47.4023 4793.79,0 4644.72,0 c -128.5,0 -228.14,38.9023 -298.96,116.699 -92.86,102.903 -116.44,261.801 -70.77,476.602 34.64,163.199 106.18,296.969 214.6,401.359 117.48,113.44 258.3,170.18 422.44,170.18 140.06,0 240.95,-36.89 302.72,-110.66 61.71,-73.821 86.81,-157.629 75.29,-251.528" /><path
         id="path22"
         style="fill:#2e2d2d;fill-opacity:1;fill-rule:nonzero;stroke:none"
         d="m 6472.66,628 c 70.27,0 128.9,14 175.83,42.102 46.92,28 78.21,78.597 93.76,151.769 16.54,78.621 -0.76,132.231 -51.95,160.82 -27.61,15.02 -67.05,22.549 -118.24,22.549 H 6206.11 L 6126.28,628 Z m -388.51,506.72 h 512.03 c 84.31,0 151.09,-12.28 200.26,-36.88 93.9,-47.2 127.51,-134.289 100.94,-261.309 -14.08,-66.23 -39.31,-120.429 -75.71,-162.629 -36.39,-42.203 -81.93,-76.004 -136.66,-101.601 39.67,-17.602 67.28,-40.699 82.83,-69.301 15.56,-28.602 17.8,-75.098 6.77,-139.301 l -26.35,-148.398 c -7.53,-42.102 -10.54,-73.5 -9.01,-94.102 1.48,-35.0974 12.77,-57.699 33.88,-67.8006 l -5.29,-24.7968 h -183.71 c -3.01,9.5 -4.53,21.8007 -4.53,36.8984 0,15 3.76,44.199 11.29,87.301 l 30.12,184.5 c 11.56,72.301 -5.02,120.801 -49.71,145.301 C 6545.22,496.199 6501.52,503 6440.29,503 H 6099.21 L 5999.04,28.6016 H 5849.2 L 6084.15,1134.72" /><path
         id="path24"
         style="fill:#2e2d2d;fill-opacity:1;fill-rule:nonzero;stroke:none"
         d="m 8120.68,481.898 -64,488.692 -282.37,-488.692 z m -106.94,652.822 h 169.42 L 8349.58,28.6016 H 8185.4 l -42.12,331.3004 h -437.5 L 7516.01,28.6016 h -153.6 L 8013.74,1134.72" /><path
         id="path26"
         style="fill:#2e2d2d;fill-opacity:1;fill-rule:nonzero;stroke:none"
         d="m 9247.63,1134.72 h 767.27 L 9985.56,999.18 H 9368.11 L 9297.29,663.301 H 9840.2 L 9811.61,531.602 H 9268.7 L 9162.51,28.6016 H 9012.68 L 9247.63,1134.72" /><path
         id="path28"
         style="fill:#2e2d2d;fill-opacity:1;fill-rule:nonzero;stroke:none"
         d="m 11563.1,1134.72 -27.9,-131.77 h -372.8 l -207,-974.3484 h -152.1 l 207,974.3484 h -372.7 l 27.9,131.77 h 897.6" /><path
         id="path30"
         style="fill:#2e2d2d;fill-opacity:1;fill-rule:nonzero;stroke:none"
         d="m 13435.9,9382.1 -585.3,-338.88 -1400.8,-4666.97 h 1090.9 l 1502.2,5005.85 h -607" /><path
         id="path32"
         style="fill:#2e2d2d;fill-opacity:1;fill-rule:nonzero;stroke:none"
         d="M 1.91016,2095.85 1674.46,7528.28 H 2765.81 L 1389.12,3056.96 H 3213.5 L 2917.7,2095.85 H 1.91016" /><path
         id="path34"
         style="fill:#2e2d2d;fill-opacity:1;fill-rule:nonzero;stroke:none"
         d="M 4047.57,2095.85 5720.12,7528.28 H 6811.47 L 5138.99,2095.85 H 4047.57" /><path
         id="path36"
         style="fill:#2e2d2d;fill-opacity:1;fill-rule:nonzero;stroke:none"
         d="m 6434.12,2095.85 1672.54,5432.43 h 3111.24 l -295.8,-961.1 H 8902.16 L 8525.85,5337.36 h 1962.75 l -303.9,-961.11 H 8229.99 L 7525.54,2095.85 H 6434.12" /><g
         transform="scale(1.1108)"
         id="g38"><path
           id="path40"
           style="fill:#2e2d2d;fill-opacity:1;fill-rule:nonzero;stroke:none"
           d="M 16300,9281.03 V 8919.5 h -4365.7 l -713.1,-413.41 -2817.87,442.22 v 362.07 h 4194.87 l 712.6,412.36 2989.2,-441.71" /></g><path
         id="path42"
         style="fill:#2e2d2d;fill-opacity:1;fill-rule:nonzero;stroke:none"
         d="m 760.184,481.898 -64,488.692 L 413.809,481.898 Z M 653.242,1134.72 H 822.668 L 989.082,28.6016 H 824.906 L 782.773,359.902 H 345.277 L 155.508,28.6016 H 1.91016 L 653.242,1134.72" /><path
         id="path44"
         style="fill:#2e2d2d;fill-opacity:1;fill-rule:nonzero;stroke:none"
         d="m 1906.67,1134.72 h 151.36 L 1823.12,28.6016 h -151.35 l 234.9,1106.1184" /><path
         id="path46"
         style="fill:#2e2d2d;fill-opacity:1;fill-rule:nonzero;stroke:none"
         d="m 3220.34,628 c 70.28,0 128.9,14 175.83,42.102 46.93,28 78.21,78.597 93.77,151.769 16.53,78.621 -0.77,132.231 -51.95,160.82 -27.61,15.02 -67.05,22.549 -118.24,22.549 H 2953.79 L 2873.96,628 Z m -388.5,506.72 h 512.03 c 84.3,0 151.09,-12.28 200.26,-36.88 93.89,-47.2 127.51,-134.289 100.93,-261.309 -14.07,-66.23 -39.31,-120.429 -75.7,-162.629 -36.4,-42.203 -81.93,-76.004 -136.66,-101.601 39.67,-17.602 67.28,-40.699 82.83,-69.301 15.55,-28.602 17.79,-75.098 6.76,-139.301 l -26.35,-148.398 c -7.53,-42.102 -10.53,-73.5 -9.01,-94.102 1.48,-35.0974 12.78,-57.699 33.89,-67.8006 l -5.29,-24.7968 h -183.72 c -3.01,9.5 -4.53,21.8007 -4.53,36.8984 0,15 3.76,44.199 11.3,87.301 l 30.12,184.5 c 11.56,72.301 -5.02,120.801 -49.71,145.301 C 3292.91,496.199 3249.2,503 3187.98,503 H 2846.89 L 2746.72,28.6016 H 2596.88 L 2831.84,1134.72" /><path
         id="path48"
         style="fill:#2e2d2d;fill-opacity:1;fill-rule:nonzero;stroke:none"
         d="m 5290.04,802.652 h -146.11 c -1.48,71.528 -22.59,128.18 -63.25,170 -40.65,41.768 -105.68,62.708 -195.01,62.708 -108.91,0 -204.92,-38.321 -288.02,-114.93 -83.09,-76.641 -141.45,-194.028 -175.07,-352.328 -27.6,-129.602 -19.72,-234.801 23.71,-315.403 43.44,-80.597 125.15,-120.898 245.13,-120.898 110.39,0 203.53,42.398 279.32,127.199 39.67,44.699 74.81,103.402 105.42,176.199 h 146.11 C 5184.62,318.801 5120.84,221.102 5030.98,142.301 4922.56,47.4023 4793.79,0 4644.72,0 c -128.5,0 -228.14,38.9023 -298.96,116.699 -92.86,102.903 -116.44,261.801 -70.77,476.602 34.64,163.199 106.18,296.969 214.6,401.359 117.48,113.44 258.3,170.18 422.44,170.18 140.06,0 240.95,-36.89 302.72,-110.66 61.71,-73.821 86.81,-157.629 75.29,-251.528" /><path
         id="path50"
         style="fill:#2e2d2d;fill-opacity:1;fill-rule:nonzero;stroke:none"
         d="m 6472.66,628 c 70.27,0 128.9,14 175.83,42.102 46.92,28 78.21,78.597 93.76,151.769 16.54,78.621 -0.76,132.231 -51.95,160.82 -27.61,15.02 -67.05,22.549 -118.24,22.549 H 6206.11 L 6126.28,628 Z m -388.51,506.72 h 512.03 c 84.31,0 151.09,-12.28 200.26,-36.88 93.9,-47.2 127.51,-134.289 100.94,-261.309 -14.08,-66.23 -39.31,-120.429 -75.71,-162.629 -36.39,-42.203 -81.93,-76.004 -136.66,-101.601 39.67,-17.602 67.28,-40.699 82.83,-69.301 15.56,-28.602 17.8,-75.098 6.77,-139.301 l -26.35,-148.398 c -7.53,-42.102 -10.54,-73.5 -9.01,-94.102 1.48,-35.0974 12.77,-57.699 33.88,-67.8006 l -5.29,-24.7968 h -183.71 c -3.01,9.5 -4.53,21.8007 -4.53,36.8984 0,15 3.76,44.199 11.29,87.301 l 30.12,184.5 c 11.56,72.301 -5.02,120.801 -49.71,145.301 C 6545.22,496.199 6501.52,503 6440.29,503 H 6099.21 L 5999.04,28.6016 H 5849.2 L 6084.15,1134.72" /><path
         id="path52"
         style="fill:#2e2d2d;fill-opacity:1;fill-rule:nonzero;stroke:none"
         d="m 8120.68,481.898 -64,488.692 -282.37,-488.692 z m -106.94,652.822 h 169.42 L 8349.58,28.6016 H 8185.4 l -42.12,331.3004 h -437.5 L 7516.01,28.6016 h -153.6 L 8013.74,1134.72" /><path
         id="path54"
         style="fill:#2e2d2d;fill-opacity:1;fill-rule:nonzero;stroke:none"
         d="m 9247.63,1134.72 h 767.27 L 9985.56,999.18 H 9368.11 L 9297.29,663.301 H 9840.2 L 9811.61,531.602 H 9268.7 L 9162.51,28.6016 H 9012.68 L 9247.63,1134.72" /><path
         id="path56"
         style="fill:#2e2d2d;fill-opacity:1;fill-rule:nonzero;stroke:none"
         d="m 11563.1,1134.72 -27.9,-131.77 h -372.8 l -207,-974.3484 h -152.1 l 207,974.3484 h -372.7 l 27.9,131.77 h 897.6" /><path
         id="path58"
         style="fill:#2e2d2d;fill-opacity:1;fill-rule:nonzero;stroke:none"
         d="m 13435.9,9382.1 -585.3,-338.88 -1400.8,-4666.97 h 1090.9 l 1502.2,5005.85 h -607" /><path
         id="path60"
         style="fill:#2e2d2d;fill-opacity:1;fill-rule:nonzero;stroke:none"
         d="M 1.91016,2095.85 1674.46,7528.28 H 2765.81 L 1389.12,3056.96 H 3213.5 L 2917.7,2095.85 H 1.91016" /><path
         id="path62"
         style="fill:#2e2d2d;fill-opacity:1;fill-rule:nonzero;stroke:none"
         d="M 4047.57,2095.85 5720.12,7528.28 H 6811.47 L 5138.99,2095.85 H 4047.57" /><path
         id="path64"
         style="fill:#2e2d2d;fill-opacity:1;fill-rule:nonzero;stroke:none"
         d="m 6434.12,2095.85 1672.54,5432.43 h 3111.24 l -295.8,-961.1 H 8902.16 L 8525.85,5337.36 h 1962.75 l -303.9,-961.11 H 8229.99 L 7525.54,2095.85 H 6434.12" /><g
         transform="scale(1.1108)"
         id="g66"><path
           id="path68"
           style="fill:#2e2d2d;fill-opacity:1;fill-rule:nonzero;stroke:none"
           d="M 16300,9281.03 V 8919.5 h -4365.7 l -713.1,-413.41 -2817.87,442.22 v 362.07 h 4194.87 l 712.6,412.36 2989.2,-441.71" /></g></g></g></svg>