<?xml version="1.0" encoding="utf-8"?>
<!-- Generator: Adobe Illustrator 25.2.3, SVG Export Plug-In . SVG Version: 6.00 Build 0)  -->
<svg version="1.1" id="Layer_1" xmlns:serif="http://www.serif.com/"
	 xmlns="http://www.w3.org/2000/svg" xmlns:xlink="http://www.w3.org/1999/xlink" x="0px" y="0px" viewBox="0 0 72 72"
	 style="enable-background:new 0 0 72 72;" xml:space="preserve">
<path d="M66.7,0C69.6,0,72,2.3,72,5.2v61.6c0,2.9-2.4,5.2-5.3,5.2H5.3C2.4,72,0,69.7,0,66.8V5.2C0,2.3,2.4,0,5.3,0H66.7z M61.4,61.4
	V42.5c0-9.3-2-16.4-12.8-16.4c-5.2,0-8.7,2.8-10.1,5.6h-0.1V27H28.1v34.4h10.7v-17c0-4.5,0.8-8.8,6.4-8.8c5.5,0,5.5,5.1,5.5,9.1
	v16.7C50.7,61.4,61.4,61.4,61.4,61.4z M21.4,27H10.7v34.4h10.7V27z M16,9.9c-3.4,0-6.2,2.8-6.2,6.2s2.8,6.2,6.2,6.2s6.2-2.8,6.2-6.2
	S19.4,9.9,16,9.9z"/>
</svg>
