<?xml version="1.0" encoding="utf-8"?>
<!-- Generator: Adobe Illustrator 25.2.3, SVG Export Plug-In . SVG Version: 6.00 Build 0)  -->
<svg version="1.1" id="Layer_1" xmlns:serif="http://www.serif.com/"
	 xmlns="http://www.w3.org/2000/svg" xmlns:xlink="http://www.w3.org/1999/xlink" x="0px" y="0px" viewBox="0 0 72 72"
	 style="enable-background:new 0 0 72 72;" xml:space="preserve">
<style type="text/css">
	.st0{fill:none;stroke:#000000;stroke-width:4;stroke-miterlimit:10;}
	.st1{fill:none;stroke:#000000;stroke-width:4;stroke-linecap:round;stroke-miterlimit:10;}
</style>
<path class="st0" d="M19.7,27H4.5c-0.8,0-1.4-0.6-1.4-1.4V10.4C3.1,9.6,3.8,9,4.5,9h15.1c0.8,0,1.4,0.6,1.4,1.4v15.1
	C21.1,26.4,20.5,27,19.7,27z"/>
<line class="st1" x1="21.1" y1="18" x2="32.9" y2="18"/>
<line class="st1" x1="27.9" y1="23" x2="32.9" y2="18"/>
<line class="st1" x1="27.9" y1="13" x2="32.9" y2="18"/>
<line class="st1" x1="12.1" y1="27" x2="12.1" y2="38.8"/>
<line class="st1" x1="7.1" y1="33.8" x2="12.1" y2="38.8"/>
<line class="st1" x1="17.1" y1="33.8" x2="12.1" y2="38.8"/>
<path class="st0" d="M19.7,63H4.5c-0.8,0-1.4-0.6-1.4-1.4V46.4c0-0.8,0.6-1.4,1.4-1.4h15.1c0.8,0,1.4,0.6,1.4,1.4v15.1
	C21.1,62.4,20.5,63,19.7,63z"/>
<path class="st0" d="M55.7,27H40.5c-0.8,0-1.4-0.6-1.4-1.4V10.4c0-0.8,0.6-1.4,1.4-1.4h15.1c0.8,0,1.4,0.6,1.4,1.4v15.1
	C57.1,26.4,56.5,27,55.7,27z"/>
<line class="st1" x1="57.1" y1="18" x2="68.9" y2="18"/>
<line class="st1" x1="63.9" y1="23" x2="68.9" y2="18"/>
<line class="st1" x1="63.9" y1="13" x2="68.9" y2="18"/>
<line class="st1" x1="48.1" y1="27" x2="48.1" y2="38.8"/>
<line class="st1" x1="43.1" y1="33.8" x2="48.1" y2="38.8"/>
<line class="st1" x1="53.1" y1="33.8" x2="48.1" y2="38.8"/>
<path class="st0" d="M55.7,63H40.5c-0.8,0-1.4-0.6-1.4-1.4V46.4c0-0.8,0.6-1.4,1.4-1.4h15.1c0.8,0,1.4,0.6,1.4,1.4v15.1
	C57.1,62.4,56.5,63,55.7,63z"/>
</svg>
