<?xml version="1.0" encoding="utf-8"?>
<!-- Generator: Adobe Illustrator 25.2.3, SVG Export Plug-In . SVG Version: 6.00 Build 0)  -->
<svg version="1.1" id="Layer_1" xmlns:serif="http://www.serif.com/"
	 xmlns="http://www.w3.org/2000/svg" xmlns:xlink="http://www.w3.org/1999/xlink" x="0px" y="0px" viewBox="0 0 90 90"
	 style="enable-background:new 0 0 90 90;" xml:space="preserve">
<style type="text/css">
	.st0{stroke:#000000;stroke-width:5;stroke-linejoin:round;stroke-miterlimit:10;}
</style>
<g>
	<path d="M76,14v8H14v-8H76 M77.4,9H12.6c-2,0-3.6,1.6-3.6,3.6v10.8c0,2,1.6,3.6,3.6,3.6h64.8c2,0,3.6-1.6,3.6-3.6V12.6
		C81,10.6,79.4,9,77.4,9L77.4,9z"/>
</g>
<g>
	<path d="M13,68v8H5v-8H13 M16.2,63H1.8c-1,0-1.8,0.8-1.8,1.8v14.4c0,1,0.8,1.8,1.8,1.8h14.4c1,0,1.8-0.8,1.8-1.8V64.8
		C18,63.8,17.2,63,16.2,63L16.2,63z"/>
</g>
<g>
	<line class="st0" x1="28" y1="9" x2="28" y2="27"/>
</g>
<g>
	<line class="st0" x1="45" y1="9" x2="45" y2="27"/>
</g>
<g>
	<line class="st0" x1="62" y1="9" x2="62" y2="27"/>
</g>
<g>
	<path d="M80.5,41v8h-26v-8H80.5 M83,36H52c-1.4,0-2.5,1.1-2.5,2.5v12.9c0,1.4,1.1,2.5,2.5,2.5h31c1.4,0,2.5-1.1,2.5-2.5V38.5
		C85.5,37.1,84.4,36,83,36L83,36z"/>
</g>
<g>
	<line class="st0" x1="67.5" y1="36" x2="67.5" y2="54"/>
</g>
<g>
	<path d="M35.5,41v8h-26v-8H35.5 M38,36H7c-1.4,0-2.5,1.1-2.5,2.5v12.9C4.5,52.9,5.6,54,7,54h31c1.4,0,2.5-1.1,2.5-2.5V38.6
		C40.5,37.2,39.4,36,38,36L38,36z"/>
</g>
<g>
	<line class="st0" x1="22.5" y1="36" x2="22.5" y2="54"/>
</g>
<g>
	<path d="M85,68v8h-8v-8H85 M88.2,63H73.8c-1,0-1.8,0.8-1.8,1.8v14.4c0,1,0.8,1.8,1.8,1.8h14.4c1,0,1.8-0.8,1.8-1.8V64.8
		C90,63.8,89.2,63,88.2,63L88.2,63z"/>
</g>
<g>
	<path d="M61,68v8h-8v-8H61 M64.2,63H49.8c-1,0-1.8,0.8-1.8,1.8v14.4c0,1,0.8,1.8,1.8,1.8h14.4c1,0,1.8-0.8,1.8-1.8V64.8
		C66,63.8,65.2,63,64.2,63L64.2,63z"/>
</g>
<g>
	<path d="M37,68v8h-8v-8H37 M40.2,63H25.8c-1,0-1.8,0.8-1.8,1.8v14.4c0,1,0.8,1.8,1.8,1.8h14.4c1,0,1.8-0.8,1.8-1.8V64.8
		C42,63.8,41.2,63,40.2,63L40.2,63z"/>
</g>
</svg>
