<svg version="1.1" id="prefix__Layer_1" xmlns="http://www.w3.org/2000/svg" x="0" y="0" viewBox="0 0 90 90" xml:space="preserve" enable-background="new 0 0 90 90"><style>.prefix__st0{stroke:#000;stroke-width:5;stroke-linejoin:round;stroke-miterlimit:10}</style><path d="M76 14v8H14v-8h62m1.4-5H12.6c-2 0-3.6 1.6-3.6 3.6v10.8c0 2 1.6 3.6 3.6 3.6h64.8c2 0 3.6-1.6 3.6-3.6V12.6c0-2-1.6-3.6-3.6-3.6zM13 68v8H5v-8h8m3.2-5H1.8c-1 0-1.8.8-1.8 1.8v14.4c0 1 .8 1.8 1.8 1.8h14.4c1 0 1.8-.8 1.8-1.8V64.8c0-1-.8-1.8-1.8-1.8z"/><path class="prefix__st0" d="M28 9 28 27"/><path class="prefix__st0" d="M45 9 45 27"/><path class="prefix__st0" d="M62 9 62 27"/><path d="M80.5 41v8h-26v-8h26m2.5-5H52a2.5 2.5 0 0 0-2.5 2.5v12.9c0 1.4 1.1 2.5 2.5 2.5h31c1.4 0 2.5-1.1 2.5-2.5V38.5c0-1.4-1.1-2.5-2.5-2.5z"/><path class="prefix__st0" d="M67.5 36 67.5 54"/><path d="M35.5 41v8h-26v-8h26m2.5-5H7a2.5 2.5 0 0 0-2.5 2.5v12.9C4.5 52.9 5.6 54 7 54h31c1.4 0 2.5-1.1 2.5-2.5V38.6c0-1.4-1.1-2.6-2.5-2.6z"/><path class="prefix__st0" d="M22.5 36 22.5 54"/><path d="M85 68v8h-8v-8h8m3.2-5H73.8c-1 0-1.8.8-1.8 1.8v14.4c0 1 .8 1.8 1.8 1.8h14.4c1 0 1.8-.8 1.8-1.8V64.8c0-1-.8-1.8-1.8-1.8zM61 68v8h-8v-8h8m3.2-5H49.8c-1 0-1.8.8-1.8 1.8v14.4c0 1 .8 1.8 1.8 1.8h14.4c1 0 1.8-.8 1.8-1.8V64.8c0-1-.8-1.8-1.8-1.8zM37 68v8h-8v-8h8m3.2-5H25.8c-1 0-1.8.8-1.8 1.8v14.4c0 1 .8 1.8 1.8 1.8h14.4c1 0 1.8-.8 1.8-1.8V64.8c0-1-.8-1.8-1.8-1.8z"/></svg>