<?xml version="1.0" encoding="utf-8"?>
<!-- Generator: Adobe Illustrator 25.2.3, SVG Export Plug-In . SVG Version: 6.00 Build 0)  -->
<svg version="1.1" id="Layer_1" xmlns="http://www.w3.org/2000/svg" xmlns:xlink="http://www.w3.org/1999/xlink" x="0px" y="0px"
	 viewBox="0 0 122.6 122.9" style="enable-background:new 0 0 122.6 122.9;" xml:space="preserve">
<g>
	<path d="M110.6,72.6c0-3.2,2.6-5.8,5.8-5.8s5.8,2.6,5.8,5.8v33.2c0,4.7-1.9,9-5,12.1s-7.4,5-12.1,5h-88c-4.7,0-9-1.9-12.1-5
		s-5-7.4-5-12.1V17.2c0-4.7,1.9-9,5-12.1s7.4-5,12.1-5h33c3.2,0,5.8,2.6,5.8,5.8s-2.6,5.8-5.8,5.8h-33c-1.5,0-2.9,0.6-3.9,1.6
		s-1.6,2.4-1.6,3.9v88.6c0,1.5,0.6,2.9,1.6,3.9s2.4,1.6,3.9,1.6H105c1.5,0,2.9-0.6,3.9-1.6s1.6-2.4,1.6-3.9L110.6,72.6L110.6,72.6z
		 M112.4,17.5L54,76.6c-2.2,2.3-5.9,2.3-8.2,0.1s-2.3-5.9-0.1-8.2l56.2-56.9H78.6c-3.2,0-5.8-2.6-5.8-5.8S75.4,0,78.6,0h26.5
		c5.1,0,11.7-0.9,15.7,3.1c2.5,2.5,1.9,22.5,1.6,34.1c-0.1,3-0.2,5.3-0.2,6.9c0,3.2-2.6,5.8-5.8,5.8s-5.8-2.6-5.8-5.8
		c0-0.3,0.1-3.3,0.2-7.2C111,30.9,111.9,22.9,112.4,17.5L112.4,17.5z"/>
</g>
</svg>
