<?xml version="1.0" encoding="utf-8"?>
<!-- Generator: Adobe Illustrator 25.2.3, SVG Export Plug-In . SVG Version: 6.00 Build 0)  -->
<svg version="1.1" id="Layer_1" xmlns="http://www.w3.org/2000/svg" xmlns:xlink="http://www.w3.org/1999/xlink" x="0px" y="0px"
	 viewBox="0 0 115.3 122.9" style="enable-background:new 0 0 115.3 122.9;" xml:space="preserve">
<style type="text/css">
	.st0{fill-rule:evenodd;clip-rule:evenodd;}
</style>
<g>
	<path class="st0" d="M25.4,57h64.9V37.3H69.6c-2.2,0-5.2-1.2-6.6-2.6c-1.4-1.4-2.3-4-2.3-6.2V7.6l0,0H8.1C8,7.6,7.8,7.7,7.7,7.8
		C7.6,7.9,7.6,8.1,7.6,8.2v106.4c0,0.1,0.1,0.3,0.2,0.4s0.3,0.2,0.4,0.2c22.8,0,58.1,0,81.5,0c0.2,0,0.2-0.1,0.3-0.2
		c0.1-0.1,0.3-0.3,0.3-0.4v-11.2H25.4c-4.1,0-7.6-3.4-7.6-7.6V64.6C17.8,60.4,21.2,57,25.4,57L25.4,57z M29.5,67.4h13.2
		c2.9,0,5,0.7,6.5,2.1c1.4,1.4,2.1,3.3,2.1,5.8c0,2.6-0.8,4.6-2.3,6.1s-3.9,2.2-7.1,2.2h-4.3v9.5h-8V67.4H29.5z M37.5,78.4h2
		c1.5,0,2.6-0.3,3.2-0.8c0.6-0.5,0.9-1.2,0.9-2s-0.3-1.5-0.8-2.1s-1.5-0.8-3-0.8h-2.3L37.5,78.4L37.5,78.4z M55,67.4h11.8
		c2.3,0,4.2,0.3,5.6,0.9S75,69.8,76,71c0.9,1.2,1.6,2.6,2,4.1c0.4,1.6,0.6,3.2,0.6,5c0,2.7-0.3,4.9-0.9,6.4s-1.5,2.8-2.6,3.8
		s-2.3,1.7-3.6,2c-1.7,0.5-3.3,0.7-4.7,0.7H55V67.4L55,67.4z M62.9,73.2v14h1.9c1.7,0,2.8-0.2,3.6-0.6c0.7-0.4,1.2-1,1.7-1.9
		c0.4-0.9,0.6-2.4,0.6-4.4c0-2.7-0.4-4.6-1.3-5.6S67,73.2,65,73.2H62.9L62.9,73.2z M82.2,67.4h19.6v5.5H90.2v4.5h10v5.2h-10v10.5
		h-7.9L82.2,67.4L82.2,67.4z M97.8,57h9.9c4.2,0,7.6,3.4,7.6,7.6V96c0,4.2-3.4,7.6-7.6,7.6h-9.9v13.6c0,1.6-0.7,3-1.7,4.1
		c-1.1,1.1-2.5,1.7-4.1,1.7c-29.4,0-56.6,0-86.2,0c-1.6,0-3-0.6-4.1-1.7S0,118.7,0,117.1V5.8c0-1.6,0.6-3,1.7-4.1
		C2.8,0.7,4.2,0,5.8,0h58.7c0.1,0,0.3,0,0.4,0c0.6,0,1.3,0.3,1.8,0.7h0.1c0.1,0.1,0.1,0.1,0.2,0.2l30,30.4c0.5,0.5,0.9,1.2,0.9,2
		c0,0.2-0.1,0.4-0.1,0.7V57L97.8,57z M67.5,28V9l21.4,21.7H70.2c-0.7,0-1.4-0.3-1.9-0.8C67.8,29.4,67.5,28.7,67.5,28L67.5,28z"/>
</g>
</svg>
