<svg version="1.1" xmlns="http://www.w3.org/2000/svg" x="0" y="0" viewBox="0 0 115.3 122.9" xml:space="preserve" enable-background="new 0 0 115.3 122.9"><path d="M25.4 57h64.9V37.3H69.6c-2.2 0-5.2-1.2-6.6-2.6a9.5 9.5 0 0 1-2.3-6.2V7.6H8.1l-.4.2-.1.4v106.4l.2.4.4.2h81.5c.2 0 .2-.1.3-.2l.3-.4v-11.2H25.4a7.7 7.7 0 0 1-7.6-7.6V64.6c0-4.2 3.4-7.6 7.6-7.6zm4.1 10.4h13.2c2.9 0 5 .7 6.5 2.1a7.8 7.8 0 0 1 2.1 5.8c0 2.6-.8 4.6-2.3 6.1s-3.9 2.2-7.1 2.2h-4.3v9.5h-8V67.4h-.1zm8 11h2c1.5 0 2.6-.3 3.2-.8.6-.5.9-1.2.9-2s-.3-1.5-.8-2.1-1.5-.8-3-.8h-2.3v5.7zm17.5-11h11.8c2.3 0 4.2.3 5.6.9a9.5 9.5 0 0 1 5.6 6.8c.4 1.6.6 3.2.6 5 0 2.7-.3 4.9-.9 6.4s-1.5 2.8-2.6 3.8-2.3 1.7-3.6 2c-1.7.5-3.3.7-4.7.7H55V67.4zm7.9 5.8v14h1.9a8 8 0 0 0 3.6-.6c.7-.4 1.2-1 1.7-1.9.4-.9.6-2.4.6-4.4 0-2.7-.4-4.6-1.3-5.6S67 73.2 65 73.2h-2.1zm19.3-5.8h19.6v5.5H90.2v4.5h10v5.2h-10v10.5h-7.9l-.1-25.7zM97.8 57h9.9c4.2 0 7.6 3.4 7.6 7.6V96c0 4.2-3.4 7.6-7.6 7.6h-9.9v13.6c0 1.6-.7 3-1.7 4.1A5.7 5.7 0 0 1 92 123H5.8c-1.6 0-3-.6-4.1-1.7S0 118.7 0 117.1V5.8c0-1.6.6-3 1.7-4.1C2.8.7 4.2 0 5.8 0h59.1c.6 0 1.3.3 1.8.7h.1l.2.2 30 30.4c.5.5.9 1.2.9 2l-.1.7v23zM67.5 28V9l21.4 21.7H70.2a2.7 2.7 0 0 1-2.7-2.7z" fill-rule="evenodd" clip-rule="evenodd"/></svg>