<?xml version="1.0" encoding="utf-8"?>
<!-- Generator: Adobe Illustrator 25.2.3, SVG Export Plug-In . SVG Version: 6.00 Build 0)  -->
<svg version="1.1" id="Layer_1" xmlns="http://www.w3.org/2000/svg" xmlns:xlink="http://www.w3.org/1999/xlink" x="0px" y="0px"
	 viewBox="0 0 64 64" style="enable-background:new 0 0 64 64;" xml:space="preserve">
<g>
	<path d="M63.8,29l0.1,2.9C63.9,30.9,63.9,30,63.8,29z"/>
	<path d="M16.4,28.8c0,0-8.9,32.7,26.7,33c11.4-4.2,19.4-14.6,20.7-26.6c0.1-0.8,0.1-1.7,0.1-2.6v-0.7c0-1-0.1-2-0.1-2.9
		C54.4,66,12.8,51.5,16.4,28.8z"/>
</g>
<path d="M34.8,16.7c0,0-33.1-9.3-32.6,26.9c1.7,4.4,4.3,8.3,7.7,11.5c0.1,0.1,0.3,0.3,0.4,0.4c1,0.9,2,1.7,3,2.5
	c0.2,0.1,0.3,0.2,0.5,0.4c1.1,0.8,2.3,1.5,3.5,2.1c0.4,0.2,0.7,0.3,1.1,0.5c1,0.5,2.1,0.9,3.2,1.3c0.3,0.1,0.5,0.2,0.8,0.3
	c1.3,0.4,2.6,0.7,4,0.9c0.4,0.1,0.8,0.1,1.2,0.2c1.4,0.2,2.8,0.3,4.2,0.3c0.1,0,0.1,0,0.2,0c1.1,0,2.1-0.1,3.1-0.2
	C-2.1,55,12.1,13.4,34.8,16.7L34.8,16.7z"/>
<path d="M47.7,33.8c0,0,7.8-33.1-27.5-31.6c-13.8,5.3-22,19.4-19.9,34C7.8-1.1,50.1,11,47.7,33.8L47.7,33.8z M30.8,48.1
	c0,0,33.2,4.3,31.1-27.2C56.6,6.3,41.5-2.3,26.2,0.6C63.2,5.1,53.6,48.4,30.8,48.1L30.8,48.1z M41.2,31.9c0,4.9-4,9-8.9,9
	s-9-4-9-8.9s4-9,8.9-9l0,0C37.2,23,41.2,27,41.2,31.9z"/>
</svg>
