<?xml version="1.0" encoding="UTF-8" standalone="no"?>
<svg
   width="20"
   height="24"
   viewBox="0 0 20 24"
   fill="none"
   version="1.1"
   id="svg8"
   sodipodi:docname="replit.svg"
   inkscape:version="1.2.1 (9c6d41e410, 2022-07-14)"
   xmlns:inkscape="http://www.inkscape.org/namespaces/inkscape"
   xmlns:sodipodi="http://sodipodi.sourceforge.net/DTD/sodipodi-0.dtd"
   xmlns="http://www.w3.org/2000/svg"
   xmlns:svg="http://www.w3.org/2000/svg">
  <defs
     id="defs12" />
  <sodipodi:namedview
     id="namedview10"
     pagecolor="#505050"
     bordercolor="#ffffff"
     borderopacity="1"
     inkscape:showpageshadow="0"
     inkscape:pageopacity="0"
     inkscape:pagecheckerboard="1"
     inkscape:deskcolor="#505050"
     showgrid="false"
     inkscape:zoom="11.821942"
     inkscape:cx="14.549218"
     inkscape:cy="17.848168"
     inkscape:window-width="1366"
     inkscape:window-height="715"
     inkscape:window-x="-8"
     inkscape:window-y="-8"
     inkscape:window-maximized="1"
     inkscape:current-layer="svg8" />
  <path
     d="M 0,1.5 C 0,0.67157 0.67157,0 1.5,0 h 7 C 9.3284,0 10,0.67157 10,1.5 V 8 H 1.5 C 0.67157,8 0,7.3284 0,6.5 Z"
     fill="#F26207"
     id="path2"
     style="fill:#000000;fill-opacity:1" />
  <path
     d="m 10,8 h 8.5 C 19.3284,8 20,8.6716 20,9.5 v 5 C 20,15.3284 19.3284,16 18.5,16 H 10 Z"
     fill="#F26207"
     id="path4"
     style="fill:#000000;fill-opacity:1" />
  <path
     d="M 0,17.5 C 0,16.6716 0.67157,16 1.5,16 H 10 v 6.5 C 10,23.3284 9.3284,24 8.5,24 h -7 C 0.67157,24 0,23.3284 0,22.5 Z"
     fill="#F26207"
     id="path6"
     style="fill:#000000;fill-opacity:1" />
</svg>
