<?xml version="1.0" encoding="utf-8"?>
<!-- Generator: Adobe Illustrator 25.2.3, SVG Export Plug-In . SVG Version: 6.00 Build 0)  -->
<svg version="1.1" id="Layer_1" xmlns="http://www.w3.org/2000/svg" xmlns:xlink="http://www.w3.org/1999/xlink" x="0px" y="0px"
	 viewBox="0 0 225 225" style="enable-background:new 0 0 225 225;" xml:space="preserve">
<path d="M85.6,71.4c-17.1,0-34.2,0.4-51.4-0.1C13.7,70.7,0,54.8,0.5,33.1c0.5-19,15.6-33.6,35.2-33.7c24.6-0.1,49.2-0.1,73.8,0
	c19.6,0.1,34.7,14.9,35.2,34.7c0.2,10.4-0.2,20.7,0.2,31.1c0.2,5.1-1.6,6.8-6.5,6.7c-17.6-0.2-35.2-0.1-52.8-0.1
	C85.6,71.7,85.6,71.5,85.6,71.4z M36.7,53c9.4-0.2,17.4-8.3,17.4-17.7c0-9.6-8.7-17.9-18.3-17.5c-9.4,0.4-17.2,8.8-17,18.1
	C19,45.2,27.3,53.2,36.7,53z M108.6,53c9.2,0,17.5-8.2,17.7-17.5c0.2-9.1-8.1-17.6-17.4-17.7c-9.4-0.2-17.7,7.7-17.9,17.1
	C90.8,44.4,99.1,53,108.6,53z"/>
<path d="M144.5,140.1c0,15.7,0.1,31.3,0,47c-0.1,21.1-14.1,36.8-33.3,37.3c-22.4,0.6-38.3-13.3-38.9-35.5c-0.7-24.3-0.6-48.7,0-73
	c0.6-20.6,16-34.9,36.6-35.2c9.7-0.1,19.3,0.2,28.9-0.1c5.1-0.1,6.8,1.8,6.7,6.8C144.4,104.9,144.5,122.5,144.5,140.1z M90.8,188.3
	c-0.2,9.7,8,18.1,17.6,18.2c9.8,0,18-8,18.1-17.8c0.1-9-8.4-17.8-17.3-17.9C99.4,170.7,91,178.7,90.8,188.3z M108.2,134.3
	c9.7,0.2,18-7.8,18.3-17.6c0.2-9.1-8.6-18.1-17.9-18.1c-9.5,0-17.7,8.3-17.8,18.1C90.8,126,98.8,134.1,108.2,134.3z"/>
<path d="M177.7,71.1c-5.5,0-11.1-0.1-16.6,0c-4.7,0.1-7.1-1.6-7.1-6.7c0.2-10.8-0.3-21.7,0.2-32.5c0.9-19,16.9-32.6,37.4-32.2
	c18.5,0.4,33.4,15.2,33.8,33.5c0.5,22.6-13.7,37.4-36.1,37.7C185.5,71.1,181.6,71,177.7,71.1C177.7,71,177.7,71.1,177.7,71.1z
	 M190.7,17.6c-9.7-0.6-17.9,7-18.6,17.1c-0.6,9.4,7.4,17.9,17.4,18.4c8.8,0.5,17.6-7.2,18.2-16.1C208.5,26.9,200.9,18.3,190.7,17.6z
	"/>
</svg>
