<?xml version="1.0" encoding="utf-8"?>
<!-- Generator: Adobe Illustrator 25.4.1, SVG Export Plug-In . SVG Version: 6.00 Build 0)  -->
<svg version="1.1" id="Layer_1" xmlns="http://www.w3.org/2000/svg" xmlns:xlink="http://www.w3.org/1999/xlink" x="0px" y="0px"
	 viewBox="0 0 78.6 78.6" style="enable-background:new 0 0 78.6 78.6;" xml:space="preserve">
<path d="M76.4,12.8L44.6,44.6c-2.9,2.9-7.7,2.9-10.6,0l0,0C31,41.7,31,36.9,34,34L65.8,2.2c2.9-2.9,7.7-2.9,10.6,0l0,0
	C79.3,5.1,79.3,9.9,76.4,12.8z"/>
<path d="M12.7,2.2L44.6,34c2.9,2.9,2.9,7.7,0,10.6l0,0c-2.9,2.9-7.7,2.9-10.6,0L2.1,12.8c-2.9-2.9-2.9-7.7,0-10.6l0,0
	C5.1-0.7,9.8-0.7,12.7,2.2z"/>
<path d="M2.1,65.8L34,34c2.9-2.9,7.7-2.9,10.6,0l0,0c2.9,2.9,2.9,7.7,0,10.6L12.7,76.4c-2.9,2.9-7.7,2.9-10.6,0l0,0
	C-0.8,73.5-0.8,68.8,2.1,65.8z"/>
<path d="M44.6,34l31.8,31.8c2.9,2.9,2.9,7.7,0,10.6l0,0c-2.9,2.9-7.7,2.9-10.6,0L34,44.6C31,41.7,31,36.9,34,34l0,0
	C36.9,31.1,41.6,31.1,44.6,34z"/>
</svg>
